<?xml version="1.0" encoding="UTF-8" standalone="no"?>
<!DOCTYPE svg PUBLIC "-//W3C//DTD SVG 1.1//EN"
 "http://www.w3.org/Graphics/SVG/1.1/DTD/svg11.dtd">
<!-- Generated by graphviz version 2.43.0 (0)
 -->
<!-- Title: MailClient Pages: 1 -->
<svg width="593pt" height="235pt"
 viewBox="0.00 0.00 592.72 234.80" xmlns="http://www.w3.org/2000/svg" xmlns:xlink="http://www.w3.org/1999/xlink">
<g id="graph0" class="graph" transform="scale(1 1) rotate(0) translate(4 230.8)">
<title>MailClient</title>
<polygon fill="white" stroke="transparent" points="-4,4 -4,-230.8 588.72,-230.8 588.72,4 -4,4"/>
<!-- thunderbird_top -->
<g id="node1" class="node">
<title>thunderbird_top</title>
<polygon fill="none" stroke="black" points="146.99,-226.8 0.99,-226.8 0.99,-190.8 146.99,-190.8 146.99,-226.8"/>
<text text-anchor="middle" x="73.99" y="-205.1" font-family="Times,serif" font-size="14.00">Mail Client (2,3,4)</text>
</g>
<!-- dovecot_top -->
<g id="node2" class="node">
<title>dovecot_top</title>
<polygon fill="none" stroke="black" points="276.99,-226.8 164.99,-226.8 164.99,-190.8 276.99,-190.8 276.99,-226.8"/>
<text text-anchor="middle" x="220.99" y="-205.1" font-family="Times,serif" font-size="14.00">Dovecot (1,5)</text>
</g>
<!-- thunderbird_top&#45;&gt;dovecot_top -->
<!-- thunderbird_event1 -->
<g id="node9" class="node">
<title>thunderbird_event1</title>
<ellipse fill="black" stroke="black" cx="73.99" cy="-153" rx="1.8" ry="1.8"/>
</g>
<!-- thunderbird_top&#45;&gt;thunderbird_event1 -->
<g id="edge7" class="edge">
<title>thunderbird_top&#45;&gt;thunderbird_event1</title>
<path fill="none" stroke="black" d="M73.99,-190.78C73.99,-176.99 73.99,-159.17 73.99,-154.93"/>
</g>
<!-- postfix_top -->
<g id="node3" class="node">
<title>postfix_top</title>
<polygon fill="none" stroke="black" points="384.49,-226.8 295.49,-226.8 295.49,-190.8 384.49,-190.8 384.49,-226.8"/>
<text text-anchor="middle" x="339.99" y="-205.1" font-family="Times,serif" font-size="14.00">Postfix (6)</text>
</g>
<!-- dovecot_top&#45;&gt;postfix_top -->
<!-- dovecot_event1 -->
<g id="node12" class="node">
<title>dovecot_event1</title>
<ellipse fill="black" stroke="black" cx="220.99" cy="-153" rx="1.8" ry="1.8"/>
</g>
<!-- dovecot_top&#45;&gt;dovecot_event1 -->
<g id="edge11" class="edge">
<title>dovecot_top&#45;&gt;dovecot_event1</title>
<path fill="none" stroke="black" d="M220.99,-190.78C220.99,-176.99 220.99,-159.17 220.99,-154.93"/>
</g>
<!-- internet_top -->
<g id="node4" class="node">
<title>internet_top</title>
<polygon fill="none" stroke="black" points="501.49,-226.8 402.49,-226.8 402.49,-190.8 501.49,-190.8 501.49,-226.8"/>
<text text-anchor="middle" x="451.99" y="-205.1" font-family="Times,serif" font-size="14.00">Internet (7)</text>
</g>
<!-- postfix_top&#45;&gt;internet_top -->
<!-- postfix_event1 -->
<g id="node15" class="node">
<title>postfix_event1</title>
<ellipse fill="black" stroke="black" cx="339.99" cy="-153" rx="1.8" ry="1.8"/>
</g>
<!-- postfix_top&#45;&gt;postfix_event1 -->
<g id="edge15" class="edge">
<title>postfix_top&#45;&gt;postfix_event1</title>
<path fill="none" stroke="black" d="M339.99,-190.78C339.99,-176.99 339.99,-159.17 339.99,-154.93"/>
</g>
<!-- internet_event1 -->
<g id="node18" class="node">
<title>internet_event1</title>
<ellipse fill="black" stroke="black" cx="451.99" cy="-153" rx="1.8" ry="1.8"/>
</g>
<!-- internet_top&#45;&gt;internet_event1 -->
<g id="edge19" class="edge">
<title>internet_top&#45;&gt;internet_event1</title>
<path fill="none" stroke="black" d="M451.99,-190.78C451.99,-176.99 451.99,-159.17 451.99,-154.93"/>
</g>
<!-- thunderbird_bottom -->
<g id="node5" class="node">
<title>thunderbird_bottom</title>
<polygon fill="none" stroke="black" points="146.99,-36 0.99,-36 0.99,0 146.99,0 146.99,-36"/>
<text text-anchor="middle" x="73.99" y="-14.3" font-family="Times,serif" font-size="14.00">Mail Client (2,3,4)</text>
</g>
<!-- dovecot_bottom -->
<g id="node6" class="node">
<title>dovecot_bottom</title>
<polygon fill="none" stroke="black" points="276.99,-36 164.99,-36 164.99,0 276.99,0 276.99,-36"/>
<text text-anchor="middle" x="220.99" y="-14.3" font-family="Times,serif" font-size="14.00">Dovecot (1,5)</text>
</g>
<!-- thunderbird_bottom&#45;&gt;dovecot_bottom -->
<!-- postfix_bottom -->
<g id="node7" class="node">
<title>postfix_bottom</title>
<polygon fill="none" stroke="black" points="384.49,-36 295.49,-36 295.49,0 384.49,0 384.49,-36"/>
<text text-anchor="middle" x="339.99" y="-14.3" font-family="Times,serif" font-size="14.00">Postfix (6)</text>
</g>
<!-- dovecot_bottom&#45;&gt;postfix_bottom -->
<!-- internet_bottom -->
<g id="node8" class="node">
<title>internet_bottom</title>
<polygon fill="none" stroke="black" points="501.49,-36 402.49,-36 402.49,0 501.49,0 501.49,-36"/>
<text text-anchor="middle" x="451.99" y="-14.3" font-family="Times,serif" font-size="14.00">Internet (7)</text>
</g>
<!-- postfix_bottom&#45;&gt;internet_bottom -->
<!-- thunderbird_event2 -->
<g id="node10" class="node">
<title>thunderbird_event2</title>
<ellipse fill="black" stroke="black" cx="73.99" cy="-113.4" rx="1.8" ry="1.8"/>
</g>
<!-- thunderbird_event1&#45;&gt;thunderbird_event2 -->
<g id="edge8" class="edge">
<title>thunderbird_event1&#45;&gt;thunderbird_event2</title>
<path fill="none" stroke="black" d="M73.99,-151.07C73.99,-146 73.99,-121.73 73.99,-115.74"/>
</g>
<!-- thunderbird_event1&#45;&gt;dovecot_event1 -->
<g id="edge23" class="edge">
<title>thunderbird_event1&#45;&gt;dovecot_event1</title>
<path fill="none" stroke="black" d="M76,-153C120.31,-153 164.63,-153 208.95,-153"/>
<polygon fill="black" stroke="black" points="209,-156.5 219,-153 209,-149.5 209,-156.5"/>
<text text-anchor="middle" x="147.67" y="-141.8" font-family="Times,serif" font-size="14.00">Manage E&#45;Mail (1)</text>
</g>
<!-- thunderbird_event3 -->
<g id="node11" class="node">
<title>thunderbird_event3</title>
<ellipse fill="black" stroke="black" cx="73.99" cy="-73.8" rx="1.8" ry="1.8"/>
</g>
<!-- thunderbird_event2&#45;&gt;thunderbird_event3 -->
<g id="edge9" class="edge">
<title>thunderbird_event2&#45;&gt;thunderbird_event3</title>
<path fill="none" stroke="black" d="M73.99,-111.47C73.99,-106.4 73.99,-82.13 73.99,-76.14"/>
</g>
<!-- thunderbird_event3&#45;&gt;thunderbird_bottom -->
<g id="edge10" class="edge">
<title>thunderbird_event3&#45;&gt;thunderbird_bottom</title>
<path fill="none" stroke="black" d="M73.99,-71.87C73.99,-67.65 73.99,-50.02 73.99,-36.26"/>
</g>
<!-- postfix_event3 -->
<g id="node17" class="node">
<title>postfix_event3</title>
<ellipse fill="black" stroke="black" cx="339.99" cy="-73.8" rx="1.8" ry="1.8"/>
</g>
<!-- thunderbird_event3&#45;&gt;postfix_event3 -->
<g id="edge26" class="edge">
<title>thunderbird_event3&#45;&gt;postfix_event3</title>
<path fill="none" stroke="black" d="M75.75,-74.33C88.04,-77.94 162.14,-98.71 222.99,-93.6 261.9,-90.33 307.34,-81.05 328.3,-76.45"/>
<polygon fill="black" stroke="black" points="329.08,-79.86 338.07,-74.25 327.55,-73.03 329.08,-79.86"/>
<text text-anchor="middle" x="111.5" y="-97.4" font-family="Times,serif" font-size="14.00">Send E&#45;Mail [Submission] (8,9)</text>
</g>
<!-- dovecot_event2 -->
<g id="node13" class="node">
<title>dovecot_event2</title>
<ellipse fill="black" stroke="black" cx="220.99" cy="-113.4" rx="1.8" ry="1.8"/>
</g>
<!-- dovecot_event1&#45;&gt;dovecot_event2 -->
<g id="edge12" class="edge">
<title>dovecot_event1&#45;&gt;dovecot_event2</title>
<path fill="none" stroke="black" d="M220.99,-151.07C220.99,-146 220.99,-121.73 220.99,-115.74"/>
</g>
<!-- dovecot_event3 -->
<g id="node14" class="node">
<title>dovecot_event3</title>
<ellipse fill="black" stroke="black" cx="220.99" cy="-73.8" rx="1.8" ry="1.8"/>
</g>
<!-- dovecot_event2&#45;&gt;dovecot_event3 -->
<g id="edge13" class="edge">
<title>dovecot_event2&#45;&gt;dovecot_event3</title>
<path fill="none" stroke="black" d="M220.99,-111.47C220.99,-106.4 220.99,-82.13 220.99,-76.14"/>
</g>
<!-- dovecot_event3&#45;&gt;dovecot_bottom -->
<g id="edge14" class="edge">
<title>dovecot_event3&#45;&gt;dovecot_bottom</title>
<path fill="none" stroke="black" d="M220.99,-71.87C220.99,-67.65 220.99,-50.02 220.99,-36.26"/>
</g>
<!-- postfix_event2 -->
<g id="node16" class="node">
<title>postfix_event2</title>
<ellipse fill="black" stroke="black" cx="339.99" cy="-113.4" rx="1.8" ry="1.8"/>
</g>
<!-- postfix_event1&#45;&gt;postfix_event2 -->
<g id="edge16" class="edge">
<title>postfix_event1&#45;&gt;postfix_event2</title>
<path fill="none" stroke="black" d="M339.99,-151.07C339.99,-146 339.99,-121.73 339.99,-115.74"/>
</g>
<!-- postfix_event2&#45;&gt;dovecot_event2 -->
<g id="edge24" class="edge">
<title>postfix_event2&#45;&gt;dovecot_event2</title>
<path fill="none" stroke="black" d="M338.16,-113.4C303.17,-113.4 268.19,-113.4 233.21,-113.4"/>
<polygon fill="black" stroke="black" points="232.85,-109.9 222.85,-113.4 232.85,-116.9 232.85,-109.9"/>
<text text-anchor="middle" x="214.85" y="-117.2" font-family="Times,serif" font-size="14.00">Recieve E&#45;Mail (5)</text>
</g>
<!-- postfix_event2&#45;&gt;postfix_event3 -->
<g id="edge17" class="edge">
<title>postfix_event2&#45;&gt;postfix_event3</title>
<path fill="none" stroke="black" d="M339.99,-111.47C339.99,-106.4 339.99,-82.13 339.99,-76.14"/>
</g>
<!-- postfix_event3&#45;&gt;postfix_bottom -->
<g id="edge18" class="edge">
<title>postfix_event3&#45;&gt;postfix_bottom</title>
<path fill="none" stroke="black" d="M339.99,-71.87C339.99,-67.65 339.99,-50.02 339.99,-36.26"/>
</g>
<!-- internet_event3 -->
<g id="node20" class="node">
<title>internet_event3</title>
<ellipse fill="black" stroke="black" cx="451.99" cy="-73.8" rx="1.8" ry="1.8"/>
</g>
<!-- postfix_event3&#45;&gt;internet_event3 -->
<g id="edge27" class="edge">
<title>postfix_event3&#45;&gt;internet_event3</title>
<path fill="none" stroke="black" d="M342.17,-73.8C374.7,-73.8 407.22,-73.8 439.75,-73.8"/>
<polygon fill="black" stroke="black" points="439.84,-77.3 449.84,-73.8 439.84,-70.3 439.84,-77.3"/>
<text text-anchor="middle" x="480.8" y="-62.6" font-family="Times,serif" font-size="14.00">Send E&#45;Mail [SMTP] (7)</text>
</g>
<!-- internet_event2 -->
<g id="node19" class="node">
<title>internet_event2</title>
<ellipse fill="black" stroke="black" cx="451.99" cy="-113.4" rx="1.8" ry="1.8"/>
</g>
<!-- internet_event1&#45;&gt;internet_event2 -->
<g id="edge20" class="edge">
<title>internet_event1&#45;&gt;internet_event2</title>
<path fill="none" stroke="black" d="M451.99,-151.07C451.99,-146 451.99,-121.73 451.99,-115.74"/>
</g>
<!-- internet_event2&#45;&gt;postfix_event2 -->
<g id="edge25" class="edge">
<title>internet_event2&#45;&gt;postfix_event2</title>
<path fill="none" stroke="black" d="M449.84,-113.4C417.32,-113.4 384.79,-113.4 352.27,-113.4"/>
<polygon fill="black" stroke="black" points="352.17,-109.9 342.17,-113.4 352.17,-116.9 352.17,-109.9"/>
<text text-anchor="middle" x="490.22" y="-117.2" font-family="Times,serif" font-size="14.00">Recieve E&#45;Mail [SMTP] (7)</text>
</g>
<!-- internet_event2&#45;&gt;internet_event3 -->
<g id="edge21" class="edge">
<title>internet_event2&#45;&gt;internet_event3</title>
<path fill="none" stroke="black" d="M451.99,-111.47C451.99,-106.4 451.99,-82.13 451.99,-76.14"/>
</g>
<!-- internet_event3&#45;&gt;internet_bottom -->
<g id="edge22" class="edge">
<title>internet_event3&#45;&gt;internet_bottom</title>
<path fill="none" stroke="black" d="M451.99,-71.87C451.99,-67.65 451.99,-50.02 451.99,-36.26"/>
</g>
</g>
</svg>
