<?xml version="1.0" encoding="UTF-8" standalone="no"?>
<!DOCTYPE svg PUBLIC "-//W3C//DTD SVG 1.1//EN"
 "http://www.w3.org/Graphics/SVG/1.1/DTD/svg11.dtd">
<!-- Generated by graphviz version 2.43.0 (0)
 -->
<!-- Title: SendMailSMTP2GO Pages: 1 -->
<svg width="520pt" height="195pt"
 viewBox="0.00 0.00 520.18 195.20" xmlns="http://www.w3.org/2000/svg" xmlns:xlink="http://www.w3.org/1999/xlink">
<g id="graph0" class="graph" transform="scale(1 1) rotate(0) translate(4 191.2)">
<title>SendMailSMTP2GO</title>
<polygon fill="white" stroke="transparent" points="-4,4 -4,-191.2 516.18,-191.2 516.18,4 -4,4"/>
<!-- you_top -->
<g id="node1" class="node">
<title>you_top</title>
<polygon fill="none" stroke="black" points="199.18,-187.2 98.18,-187.2 98.18,-151.2 199.18,-151.2 199.18,-187.2"/>
<text text-anchor="middle" x="148.68" y="-165.5" font-family="Times,serif" font-size="14.00">Your Server</text>
</g>
<!-- smtp2go_top -->
<g id="node2" class="node">
<title>smtp2go_top</title>
<polygon fill="none" stroke="black" points="308.18,-187.2 217.18,-187.2 217.18,-151.2 308.18,-151.2 308.18,-187.2"/>
<text text-anchor="middle" x="262.68" y="-165.5" font-family="Times,serif" font-size="14.00">SMTP2GO</text>
</g>
<!-- you_top&#45;&gt;smtp2go_top -->
<!-- you_event1 -->
<g id="node7" class="node">
<title>you_event1</title>
<ellipse fill="black" stroke="black" cx="148.68" cy="-113.4" rx="1.8" ry="1.8"/>
</g>
<!-- you_top&#45;&gt;you_event1 -->
<g id="edge5" class="edge">
<title>you_top&#45;&gt;you_event1</title>
<path fill="none" stroke="black" d="M148.68,-151.18C148.68,-137.39 148.68,-119.57 148.68,-115.33"/>
</g>
<!-- email_contact_top -->
<g id="node3" class="node">
<title>email_contact_top</title>
<polygon fill="none" stroke="black" points="449.18,-187.2 326.18,-187.2 326.18,-151.2 449.18,-151.2 449.18,-187.2"/>
<text text-anchor="middle" x="387.68" y="-165.5" font-family="Times,serif" font-size="14.00">E&#45;Mail Contact</text>
</g>
<!-- smtp2go_top&#45;&gt;email_contact_top -->
<!-- smtp2go_event1 -->
<g id="node9" class="node">
<title>smtp2go_event1</title>
<ellipse fill="black" stroke="black" cx="262.68" cy="-113.4" rx="1.8" ry="1.8"/>
</g>
<!-- smtp2go_top&#45;&gt;smtp2go_event1 -->
<g id="edge8" class="edge">
<title>smtp2go_top&#45;&gt;smtp2go_event1</title>
<path fill="none" stroke="black" d="M262.68,-151.18C262.68,-137.39 262.68,-119.57 262.68,-115.33"/>
</g>
<!-- email_contact_event1 -->
<g id="node11" class="node">
<title>email_contact_event1</title>
<ellipse fill="black" stroke="black" cx="387.68" cy="-113.4" rx="1.8" ry="1.8"/>
</g>
<!-- email_contact_top&#45;&gt;email_contact_event1 -->
<g id="edge11" class="edge">
<title>email_contact_top&#45;&gt;email_contact_event1</title>
<path fill="none" stroke="black" d="M387.68,-151.18C387.68,-137.39 387.68,-119.57 387.68,-115.33"/>
</g>
<!-- you_bottom -->
<g id="node4" class="node">
<title>you_bottom</title>
<polygon fill="none" stroke="black" points="199.18,-36 98.18,-36 98.18,0 199.18,0 199.18,-36"/>
<text text-anchor="middle" x="148.68" y="-14.3" font-family="Times,serif" font-size="14.00">Your Server</text>
</g>
<!-- smtp2go_bottom -->
<g id="node5" class="node">
<title>smtp2go_bottom</title>
<polygon fill="none" stroke="black" points="308.18,-36 217.18,-36 217.18,0 308.18,0 308.18,-36"/>
<text text-anchor="middle" x="262.68" y="-14.3" font-family="Times,serif" font-size="14.00">SMTP2GO</text>
</g>
<!-- you_bottom&#45;&gt;smtp2go_bottom -->
<!-- email_contact_bottom -->
<g id="node6" class="node">
<title>email_contact_bottom</title>
<polygon fill="none" stroke="black" points="449.18,-36 326.18,-36 326.18,0 449.18,0 449.18,-36"/>
<text text-anchor="middle" x="387.68" y="-14.3" font-family="Times,serif" font-size="14.00">E&#45;Mail Contact</text>
</g>
<!-- smtp2go_bottom&#45;&gt;email_contact_bottom -->
<!-- you_event2 -->
<g id="node8" class="node">
<title>you_event2</title>
<ellipse fill="black" stroke="black" cx="148.68" cy="-73.8" rx="1.8" ry="1.8"/>
</g>
<!-- you_event1&#45;&gt;you_event2 -->
<g id="edge6" class="edge">
<title>you_event1&#45;&gt;you_event2</title>
<path fill="none" stroke="black" d="M148.68,-111.47C148.68,-106.4 148.68,-82.13 148.68,-76.14"/>
</g>
<!-- you_event1&#45;&gt;smtp2go_event1 -->
<g id="edge14" class="edge">
<title>you_event1&#45;&gt;smtp2go_event1</title>
<path fill="none" stroke="black" d="M150.91,-113.4C184.02,-113.4 217.12,-113.4 250.23,-113.4"/>
<polygon fill="black" stroke="black" points="250.5,-116.9 260.5,-113.4 250.5,-109.9 250.5,-116.9"/>
<text text-anchor="middle" x="103" y="-117.2" font-family="Times,serif" font-size="14.00">Sends E&#45;Mail over port 2567</text>
</g>
<!-- you_event2&#45;&gt;you_bottom -->
<g id="edge7" class="edge">
<title>you_event2&#45;&gt;you_bottom</title>
<path fill="none" stroke="black" d="M148.68,-71.87C148.68,-67.65 148.68,-50.02 148.68,-36.26"/>
</g>
<!-- smtp2go_event2 -->
<g id="node10" class="node">
<title>smtp2go_event2</title>
<ellipse fill="black" stroke="black" cx="262.68" cy="-73.8" rx="1.8" ry="1.8"/>
</g>
<!-- smtp2go_event1&#45;&gt;smtp2go_event2 -->
<g id="edge9" class="edge">
<title>smtp2go_event1&#45;&gt;smtp2go_event2</title>
<path fill="none" stroke="black" d="M262.68,-111.47C262.68,-106.4 262.68,-82.13 262.68,-76.14"/>
</g>
<!-- smtp2go_event2&#45;&gt;smtp2go_bottom -->
<g id="edge10" class="edge">
<title>smtp2go_event2&#45;&gt;smtp2go_bottom</title>
<path fill="none" stroke="black" d="M262.68,-71.87C262.68,-67.65 262.68,-50.02 262.68,-36.26"/>
</g>
<!-- email_contact_event2 -->
<g id="node12" class="node">
<title>email_contact_event2</title>
<ellipse fill="black" stroke="black" cx="387.68" cy="-73.8" rx="1.8" ry="1.8"/>
</g>
<!-- smtp2go_event2&#45;&gt;email_contact_event2 -->
<g id="edge15" class="edge">
<title>smtp2go_event2&#45;&gt;email_contact_event2</title>
<path fill="none" stroke="black" d="M264.64,-73.8C301.54,-73.8 338.45,-73.8 375.35,-73.8"/>
<polygon fill="black" stroke="black" points="375.76,-77.3 385.76,-73.8 375.76,-70.3 375.76,-77.3"/>
<text text-anchor="middle" x="418.68" y="-62.6" font-family="Times,serif" font-size="14.00">Sends E&#45;mail over port 25</text>
</g>
<!-- email_contact_event1&#45;&gt;email_contact_event2 -->
<g id="edge12" class="edge">
<title>email_contact_event1&#45;&gt;email_contact_event2</title>
<path fill="none" stroke="black" d="M387.68,-111.47C387.68,-106.4 387.68,-82.13 387.68,-76.14"/>
</g>
<!-- email_contact_event2&#45;&gt;email_contact_bottom -->
<g id="edge13" class="edge">
<title>email_contact_event2&#45;&gt;email_contact_bottom</title>
<path fill="none" stroke="black" d="M387.68,-71.87C387.68,-67.65 387.68,-50.02 387.68,-36.26"/>
</g>
</g>
</svg>
