<?xml version="1.0" encoding="UTF-8" standalone="no"?>
<!DOCTYPE svg PUBLIC "-//W3C//DTD SVG 1.1//EN"
 "http://www.w3.org/Graphics/SVG/1.1/DTD/svg11.dtd">
<!-- Generated by graphviz version 2.43.0 (0)
 -->
<!-- Title: SendMailSMTP2GO Pages: 1 -->
<svg width="503pt" height="195pt"
 viewBox="0.00 0.00 503.09 195.20" xmlns="http://www.w3.org/2000/svg" xmlns:xlink="http://www.w3.org/1999/xlink">
<g id="graph0" class="graph" transform="scale(1 1) rotate(0) translate(4 191.2)">
<title>SendMailSMTP2GO</title>
<polygon fill="white" stroke="transparent" points="-4,4 -4,-191.2 499.09,-191.2 499.09,4 -4,4"/>
<!-- you_top -->
<g id="node1" class="node">
<title>you_top</title>
<polygon fill="none" stroke="black" points="192.92,-187.2 95.92,-187.2 95.92,-151.2 192.92,-151.2 192.92,-187.2"/>
<text text-anchor="middle" x="144.42" y="-165.5" font-family="Handlee" font-size="14.00">Your Server</text>
</g>
<!-- smtp2go_top -->
<g id="node2" class="node">
<title>smtp2go_top</title>
<polygon fill="none" stroke="black" points="295.92,-187.2 210.92,-187.2 210.92,-151.2 295.92,-151.2 295.92,-187.2"/>
<text text-anchor="middle" x="253.42" y="-165.5" font-family="Handlee" font-size="14.00">SMTP2GO</text>
</g>
<!-- you_top&#45;&gt;smtp2go_top -->
<!-- you_event1 -->
<g id="node7" class="node">
<title>you_event1</title>
<ellipse fill="black" stroke="black" cx="144.42" cy="-113.4" rx="1.8" ry="1.8"/>
</g>
<!-- you_top&#45;&gt;you_event1 -->
<g id="edge5" class="edge">
<title>you_top&#45;&gt;you_event1</title>
<path fill="none" stroke="black" d="M144.42,-151.18C144.42,-137.39 144.42,-119.57 144.42,-115.33"/>
</g>
<!-- email_contact_top -->
<g id="node3" class="node">
<title>email_contact_top</title>
<polygon fill="none" stroke="black" points="430.42,-187.2 314.42,-187.2 314.42,-151.2 430.42,-151.2 430.42,-187.2"/>
<text text-anchor="middle" x="372.42" y="-165.5" font-family="Handlee" font-size="14.00">E&#45;Mail Contact</text>
</g>
<!-- smtp2go_top&#45;&gt;email_contact_top -->
<!-- smtp2go_event1 -->
<g id="node9" class="node">
<title>smtp2go_event1</title>
<ellipse fill="black" stroke="black" cx="253.42" cy="-113.4" rx="1.8" ry="1.8"/>
</g>
<!-- smtp2go_top&#45;&gt;smtp2go_event1 -->
<g id="edge8" class="edge">
<title>smtp2go_top&#45;&gt;smtp2go_event1</title>
<path fill="none" stroke="black" d="M253.42,-151.18C253.42,-137.39 253.42,-119.57 253.42,-115.33"/>
</g>
<!-- email_contact_event1 -->
<g id="node11" class="node">
<title>email_contact_event1</title>
<ellipse fill="black" stroke="black" cx="372.42" cy="-113.4" rx="1.8" ry="1.8"/>
</g>
<!-- email_contact_top&#45;&gt;email_contact_event1 -->
<g id="edge11" class="edge">
<title>email_contact_top&#45;&gt;email_contact_event1</title>
<path fill="none" stroke="black" d="M372.42,-151.18C372.42,-137.39 372.42,-119.57 372.42,-115.33"/>
</g>
<!-- you_bottom -->
<g id="node4" class="node">
<title>you_bottom</title>
<polygon fill="none" stroke="black" points="192.92,-36 95.92,-36 95.92,0 192.92,0 192.92,-36"/>
<text text-anchor="middle" x="144.42" y="-14.3" font-family="Handlee" font-size="14.00">Your Server</text>
</g>
<!-- smtp2go_bottom -->
<g id="node5" class="node">
<title>smtp2go_bottom</title>
<polygon fill="none" stroke="black" points="295.92,-36 210.92,-36 210.92,0 295.92,0 295.92,-36"/>
<text text-anchor="middle" x="253.42" y="-14.3" font-family="Handlee" font-size="14.00">SMTP2GO</text>
</g>
<!-- you_bottom&#45;&gt;smtp2go_bottom -->
<!-- email_contact_bottom -->
<g id="node6" class="node">
<title>email_contact_bottom</title>
<polygon fill="none" stroke="black" points="430.42,-36 314.42,-36 314.42,0 430.42,0 430.42,-36"/>
<text text-anchor="middle" x="372.42" y="-14.3" font-family="Handlee" font-size="14.00">E&#45;Mail Contact</text>
</g>
<!-- smtp2go_bottom&#45;&gt;email_contact_bottom -->
<!-- you_event2 -->
<g id="node8" class="node">
<title>you_event2</title>
<ellipse fill="black" stroke="black" cx="144.42" cy="-73.8" rx="1.8" ry="1.8"/>
</g>
<!-- you_event1&#45;&gt;you_event2 -->
<g id="edge6" class="edge">
<title>you_event1&#45;&gt;you_event2</title>
<path fill="none" stroke="black" d="M144.42,-111.47C144.42,-106.4 144.42,-82.13 144.42,-76.14"/>
</g>
<!-- you_event1&#45;&gt;smtp2go_event1 -->
<g id="edge14" class="edge">
<title>you_event1&#45;&gt;smtp2go_event1</title>
<path fill="none" stroke="black" d="M146.55,-113.4C178.07,-113.4 209.59,-113.4 241.1,-113.4"/>
<polygon fill="black" stroke="black" points="241.34,-116.9 251.34,-113.4 241.34,-109.9 241.34,-116.9"/>
<text text-anchor="middle" x="99.5" y="-117.2" font-family="Handlee" font-size="14.00">Sends E&#45;Mail over port 2567</text>
</g>
<!-- you_event2&#45;&gt;you_bottom -->
<g id="edge7" class="edge">
<title>you_event2&#45;&gt;you_bottom</title>
<path fill="none" stroke="black" d="M144.42,-71.87C144.42,-67.65 144.42,-50.02 144.42,-36.26"/>
</g>
<!-- smtp2go_event2 -->
<g id="node10" class="node">
<title>smtp2go_event2</title>
<ellipse fill="black" stroke="black" cx="253.42" cy="-73.8" rx="1.8" ry="1.8"/>
</g>
<!-- smtp2go_event1&#45;&gt;smtp2go_event2 -->
<g id="edge9" class="edge">
<title>smtp2go_event1&#45;&gt;smtp2go_event2</title>
<path fill="none" stroke="black" d="M253.42,-111.47C253.42,-106.4 253.42,-82.13 253.42,-76.14"/>
</g>
<!-- smtp2go_event2&#45;&gt;smtp2go_bottom -->
<g id="edge10" class="edge">
<title>smtp2go_event2&#45;&gt;smtp2go_bottom</title>
<path fill="none" stroke="black" d="M253.42,-71.87C253.42,-67.65 253.42,-50.02 253.42,-36.26"/>
</g>
<!-- email_contact_event2 -->
<g id="node12" class="node">
<title>email_contact_event2</title>
<ellipse fill="black" stroke="black" cx="372.42" cy="-73.8" rx="1.8" ry="1.8"/>
</g>
<!-- smtp2go_event2&#45;&gt;email_contact_event2 -->
<g id="edge15" class="edge">
<title>smtp2go_event2&#45;&gt;email_contact_event2</title>
<path fill="none" stroke="black" d="M255.28,-73.8C290.27,-73.8 325.25,-73.8 360.23,-73.8"/>
<polygon fill="black" stroke="black" points="360.59,-77.3 370.59,-73.8 360.59,-70.3 360.59,-77.3"/>
<text text-anchor="middle" x="404.09" y="-62.6" font-family="Handlee" font-size="14.00">Sends E&#45;mail over port 25</text>
</g>
<!-- email_contact_event1&#45;&gt;email_contact_event2 -->
<g id="edge12" class="edge">
<title>email_contact_event1&#45;&gt;email_contact_event2</title>
<path fill="none" stroke="black" d="M372.42,-111.47C372.42,-106.4 372.42,-82.13 372.42,-76.14"/>
</g>
<!-- email_contact_event2&#45;&gt;email_contact_bottom -->
<g id="edge13" class="edge">
<title>email_contact_event2&#45;&gt;email_contact_bottom</title>
<path fill="none" stroke="black" d="M372.42,-71.87C372.42,-67.65 372.42,-50.02 372.42,-36.26"/>
</g>
</g>
</svg>
