<?xml version="1.0" encoding="UTF-8" standalone="no"?>
<!DOCTYPE svg PUBLIC "-//W3C//DTD SVG 1.1//EN"
 "http://www.w3.org/Graphics/SVG/1.1/DTD/svg11.dtd">
<!-- Generated by graphviz version 2.43.0 (0)
 -->
<!-- Title: VirtualMachine2 Pages: 1 -->
<svg width="286pt" height="260pt"
 viewBox="0.00 0.00 285.59 260.00" xmlns="http://www.w3.org/2000/svg" xmlns:xlink="http://www.w3.org/1999/xlink">
<g id="graph0" class="graph" transform="scale(1 1) rotate(0) translate(4 256)">
<title>VirtualMachine2</title>
<polygon fill="white" stroke="transparent" points="-4,4 -4,-256 281.59,-256 281.59,4 -4,4"/>
<!-- Router -->
<g id="node1" class="node">
<title>Router</title>
<ellipse fill="none" stroke="black" cx="74.09" cy="-234" rx="42.49" ry="18"/>
<text text-anchor="middle" x="74.09" y="-230.3" font-family="Times,serif" font-size="14.00">Router</text>
</g>
<!-- eth1 -->
<g id="node2" class="node">
<title>eth1</title>
<ellipse fill="none" stroke="black" cx="74.09" cy="-162" rx="31.7" ry="18"/>
<text text-anchor="middle" x="74.09" y="-158.3" font-family="Times,serif" font-size="14.00">eth1</text>
</g>
<!-- Router&#45;&gt;eth1 -->
<g id="edge1" class="edge">
<title>Router&#45;&gt;eth1</title>
<path fill="none" stroke="black" d="M74.09,-205.67C74.09,-200.69 74.09,-195.49 74.09,-190.51"/>
<polygon fill="black" stroke="black" points="70.59,-205.7 74.09,-215.7 77.59,-205.7 70.59,-205.7"/>
<polygon fill="black" stroke="black" points="77.59,-190.1 74.09,-180.1 70.59,-190.1 77.59,-190.1"/>
</g>
<!-- eth0 -->
<g id="node5" class="node">
<title>eth0</title>
<ellipse fill="none" stroke="black" cx="204.09" cy="-162" rx="31.7" ry="18"/>
<text text-anchor="middle" x="204.09" y="-158.3" font-family="Times,serif" font-size="14.00">eth0</text>
</g>
<!-- Router&#45;&gt;eth0 -->
<g id="edge4" class="edge">
<title>Router&#45;&gt;eth0</title>
<path fill="none" stroke="black" d="M108.01,-214.74C128.07,-203.93 153.31,-190.35 172.88,-179.81"/>
<polygon fill="black" stroke="black" points="106.3,-211.68 99.16,-219.5 109.62,-217.84 106.3,-211.68"/>
<polygon fill="black" stroke="black" points="174.56,-182.88 181.71,-175.05 171.24,-176.71 174.56,-182.88"/>
</g>
<!-- bridge_virbr0 -->
<g id="node3" class="node">
<title>bridge_virbr0</title>
<ellipse fill="none" stroke="black" cx="74.09" cy="-90" rx="74.19" ry="18"/>
<text text-anchor="middle" x="74.09" y="-86.3" font-family="Times,serif" font-size="14.00">bridge_virbr0</text>
</g>
<!-- eth1&#45;&gt;bridge_virbr0 -->
<g id="edge2" class="edge">
<title>eth1&#45;&gt;bridge_virbr0</title>
<path fill="none" stroke="black" d="M74.09,-133.67C74.09,-128.69 74.09,-123.49 74.09,-118.51"/>
<polygon fill="black" stroke="black" points="70.59,-133.7 74.09,-143.7 77.59,-133.7 70.59,-133.7"/>
<polygon fill="black" stroke="black" points="77.59,-118.1 74.09,-108.1 70.59,-118.1 77.59,-118.1"/>
</g>
<!-- VM -->
<g id="node4" class="node">
<title>VM</title>
<ellipse fill="none" stroke="black" cx="74.09" cy="-18" rx="27" ry="18"/>
<text text-anchor="middle" x="74.09" y="-14.3" font-family="Times,serif" font-size="14.00">VM</text>
</g>
<!-- bridge_virbr0&#45;&gt;VM -->
<g id="edge3" class="edge">
<title>bridge_virbr0&#45;&gt;VM</title>
<path fill="none" stroke="black" d="M74.09,-61.67C74.09,-56.69 74.09,-51.49 74.09,-46.51"/>
<polygon fill="black" stroke="black" points="70.59,-61.7 74.09,-71.7 77.59,-61.7 70.59,-61.7"/>
<polygon fill="black" stroke="black" points="77.59,-46.1 74.09,-36.1 70.59,-46.1 77.59,-46.1"/>
</g>
<!-- vlan1 -->
<g id="node7" class="node">
<title>vlan1</title>
<ellipse fill="none" stroke="black" cx="204.09" cy="-90" rx="36.29" ry="18"/>
<text text-anchor="middle" x="204.09" y="-86.3" font-family="Times,serif" font-size="14.00">vlan1</text>
</g>
<!-- eth0&#45;&gt;vlan1 -->
<g id="edge6" class="edge">
<title>eth0&#45;&gt;vlan1</title>
<path fill="none" stroke="black" d="M204.09,-133.67C204.09,-128.69 204.09,-123.49 204.09,-118.51"/>
<polygon fill="black" stroke="black" points="200.59,-133.7 204.09,-143.7 207.59,-133.7 200.59,-133.7"/>
<polygon fill="black" stroke="black" points="207.59,-118.1 204.09,-108.1 200.59,-118.1 207.59,-118.1"/>
</g>
<!-- PhysicalHost -->
<g id="node6" class="node">
<title>PhysicalHost</title>
<ellipse fill="none" stroke="black" cx="206.09" cy="-234" rx="71.49" ry="18"/>
<text text-anchor="middle" x="206.09" y="-230.3" font-family="Times,serif" font-size="14.00">PhysicalHost</text>
</g>
<!-- PhysicalHost&#45;&gt;eth0 -->
<g id="edge5" class="edge">
<title>PhysicalHost&#45;&gt;eth0</title>
<path fill="none" stroke="black" d="M205.31,-205.67C205.17,-200.55 205.01,-195.21 204.87,-190.1"/>
<polygon fill="black" stroke="black" points="201.81,-205.8 205.6,-215.7 208.81,-205.6 201.81,-205.8"/>
<polygon fill="black" stroke="black" points="208.37,-190 204.58,-180.1 201.37,-190.2 208.37,-190"/>
</g>
<!-- NFS -->
<g id="node8" class="node">
<title>NFS</title>
<ellipse fill="none" stroke="black" cx="204.09" cy="-18" rx="31.4" ry="18"/>
<text text-anchor="middle" x="204.09" y="-14.3" font-family="Times,serif" font-size="14.00">NFS</text>
</g>
<!-- vlan1&#45;&gt;NFS -->
<g id="edge7" class="edge">
<title>vlan1&#45;&gt;NFS</title>
<path fill="none" stroke="black" d="M204.09,-61.67C204.09,-56.69 204.09,-51.49 204.09,-46.51"/>
<polygon fill="black" stroke="black" points="200.59,-61.7 204.09,-71.7 207.59,-61.7 200.59,-61.7"/>
<polygon fill="black" stroke="black" points="207.59,-46.1 204.09,-36.1 200.59,-46.1 207.59,-46.1"/>
</g>
</g>
</svg>
