<?xml version="1.0" encoding="UTF-8" standalone="no"?>
<!DOCTYPE svg PUBLIC "-//W3C//DTD SVG 1.1//EN"
 "http://www.w3.org/Graphics/SVG/1.1/DTD/svg11.dtd">
<!-- Generated by graphviz version 2.43.0 (0)
 -->
<!-- Title: VirtualMachine Pages: 1 -->
<svg width="399pt" height="188pt"
 viewBox="0.00 0.00 398.94 188.00" xmlns="http://www.w3.org/2000/svg" xmlns:xlink="http://www.w3.org/1999/xlink">
<g id="graph0" class="graph" transform="scale(1 1) rotate(0) translate(4 184)">
<title>VirtualMachine</title>
<polygon fill="white" stroke="transparent" points="-4,4 -4,-184 394.94,-184 394.94,4 -4,4"/>
<!-- Router -->
<g id="node1" class="node">
<title>Router</title>
<ellipse fill="none" stroke="black" cx="42.25" cy="-90" rx="42.49" ry="18"/>
<text text-anchor="middle" x="42.25" y="-86.3" font-family="Times,serif" font-size="14.00">Router</text>
</g>
<!-- eth0 -->
<g id="node2" class="node">
<title>eth0</title>
<ellipse fill="none" stroke="black" cx="174.25" cy="-18" rx="31.7" ry="18"/>
<text text-anchor="middle" x="174.25" y="-14.3" font-family="Times,serif" font-size="14.00">eth0</text>
</g>
<!-- Router&#45;&gt;eth0 -->
<g id="edge1" class="edge">
<title>Router&#45;&gt;eth0</title>
<path fill="none" stroke="black" d="M76.68,-70.74C97.06,-59.93 122.68,-46.35 142.55,-35.81"/>
<polygon fill="black" stroke="black" points="74.89,-67.73 67.7,-75.5 78.17,-73.91 74.89,-67.73"/>
<polygon fill="black" stroke="black" points="144.32,-38.83 151.52,-31.05 141.04,-32.65 144.32,-38.83"/>
</g>
<!-- PhysicalHost -->
<g id="node3" class="node">
<title>PhysicalHost</title>
<ellipse fill="none" stroke="black" cx="174.25" cy="-90" rx="71.49" ry="18"/>
<text text-anchor="middle" x="174.25" y="-86.3" font-family="Times,serif" font-size="14.00">PhysicalHost</text>
</g>
<!-- PhysicalHost&#45;&gt;eth0 -->
<g id="edge2" class="edge">
<title>PhysicalHost&#45;&gt;eth0</title>
<path fill="none" stroke="black" d="M174.25,-61.67C174.25,-56.69 174.25,-51.49 174.25,-46.51"/>
<polygon fill="black" stroke="black" points="170.75,-61.7 174.25,-71.7 177.75,-61.7 170.75,-61.7"/>
<polygon fill="black" stroke="black" points="177.75,-46.1 174.25,-36.1 170.75,-46.1 177.75,-46.1"/>
</g>
<!-- NAT_virbr0 -->
<g id="node4" class="node">
<title>NAT_virbr0</title>
<ellipse fill="none" stroke="black" cx="327.25" cy="-90" rx="63.89" ry="18"/>
<text text-anchor="middle" x="327.25" y="-86.3" font-family="Times,serif" font-size="14.00">NAT_virbr0</text>
</g>
<!-- NAT_virbr0&#45;&gt;eth0 -->
<g id="edge3" class="edge">
<title>NAT_virbr0&#45;&gt;eth0</title>
<path fill="none" stroke="black" d="M295.17,-74.33C269.42,-62.54 233.38,-46.06 207.36,-34.15"/>
<polygon fill="black" stroke="black" points="208.81,-30.97 198.26,-29.99 205.9,-37.33 208.81,-30.97"/>
</g>
<!-- VM -->
<g id="node5" class="node">
<title>VM</title>
<ellipse fill="none" stroke="black" cx="327.25" cy="-162" rx="27" ry="18"/>
<text text-anchor="middle" x="327.25" y="-158.3" font-family="Times,serif" font-size="14.00">VM</text>
</g>
<!-- VM&#45;&gt;NAT_virbr0 -->
<g id="edge4" class="edge">
<title>VM&#45;&gt;NAT_virbr0</title>
<path fill="none" stroke="black" d="M327.25,-143.7C327.25,-135.98 327.25,-126.71 327.25,-118.11"/>
<polygon fill="black" stroke="black" points="330.75,-118.1 327.25,-108.1 323.75,-118.1 330.75,-118.1"/>
</g>
</g>
</svg>
