<?xml version="1.0" encoding="UTF-8" standalone="no"?>
<!DOCTYPE svg PUBLIC "-//W3C//DTD SVG 1.1//EN"
 "http://www.w3.org/Graphics/SVG/1.1/DTD/svg11.dtd">
<!-- Generated by graphviz version 2.43.0 (0)
 -->
<!-- Title: EMailRelaySendOutside Pages: 1 -->
<svg width="430pt" height="188pt"
 viewBox="0.00 0.00 430.13 188.00" xmlns="http://www.w3.org/2000/svg" xmlns:xlink="http://www.w3.org/1999/xlink">
<g id="graph0" class="graph" transform="scale(1 1) rotate(0) translate(4 184)">
<title>EMailRelaySendOutside</title>
<polygon fill="white" stroke="transparent" points="-4,4 -4,-184 426.13,-184 426.13,4 -4,4"/>
<!-- Mobile_EMail_MUA -->
<g id="node1" class="node">
<title>Mobile_EMail_MUA</title>
<ellipse fill="none" stroke="black" cx="200.99" cy="-162" rx="101.28" ry="18"/>
<text text-anchor="middle" x="200.99" y="-158.3" font-family="Times,serif" font-size="14.00">Mobile_EMail_MUA</text>
</g>
<!-- VPS_Postfix_MTA -->
<g id="node2" class="node">
<title>VPS_Postfix_MTA</title>
<ellipse fill="none" stroke="black" cx="90.99" cy="-90" rx="90.98" ry="18"/>
<text text-anchor="middle" x="90.99" y="-86.3" font-family="Times,serif" font-size="14.00">VPS_Postfix_MTA</text>
</g>
<!-- Mobile_EMail_MUA&#45;&gt;VPS_Postfix_MTA -->
<g id="edge1" class="edge">
<title>Mobile_EMail_MUA&#45;&gt;VPS_Postfix_MTA</title>
<path fill="none" stroke="black" d="M175.2,-144.59C160.31,-135.11 141.39,-123.07 125.25,-112.8"/>
<polygon fill="black" stroke="black" points="126.94,-109.73 116.62,-107.31 123.18,-115.63 126.94,-109.73"/>
</g>
<!-- HOME_Dovecot_MDA -->
<g id="node3" class="node">
<title>HOME_Dovecot_MDA</title>
<ellipse fill="none" stroke="black" cx="310.99" cy="-90" rx="111.28" ry="18"/>
<text text-anchor="middle" x="310.99" y="-86.3" font-family="Times,serif" font-size="14.00">HOME_Dovecot_MDA</text>
</g>
<!-- Mobile_EMail_MUA&#45;&gt;HOME_Dovecot_MDA -->
<g id="edge2" class="edge">
<title>Mobile_EMail_MUA&#45;&gt;HOME_Dovecot_MDA</title>
<path fill="none" stroke="black" d="M226.78,-144.59C241.57,-135.18 260.33,-123.24 276.38,-113.02"/>
<polygon fill="black" stroke="black" points="278.42,-115.87 284.98,-107.55 274.67,-109.97 278.42,-115.87"/>
</g>
<!-- Internet -->
<g id="node5" class="node">
<title>Internet</title>
<ellipse fill="none" stroke="black" cx="90.99" cy="-18" rx="48.99" ry="18"/>
<text text-anchor="middle" x="90.99" y="-14.3" font-family="Times,serif" font-size="14.00">Internet</text>
</g>
<!-- VPS_Postfix_MTA&#45;&gt;Internet -->
<g id="edge4" class="edge">
<title>VPS_Postfix_MTA&#45;&gt;Internet</title>
<path fill="none" stroke="black" d="M90.99,-71.7C90.99,-63.98 90.99,-54.71 90.99,-46.11"/>
<polygon fill="black" stroke="black" points="94.49,-46.1 90.99,-36.1 87.49,-46.1 94.49,-46.1"/>
</g>
<!-- Sent_folder -->
<g id="node4" class="node">
<title>Sent_folder</title>
<ellipse fill="none" stroke="black" cx="310.99" cy="-18" rx="63.89" ry="18"/>
<text text-anchor="middle" x="310.99" y="-14.3" font-family="Times,serif" font-size="14.00">Sent_folder</text>
</g>
<!-- HOME_Dovecot_MDA&#45;&gt;Sent_folder -->
<g id="edge3" class="edge">
<title>HOME_Dovecot_MDA&#45;&gt;Sent_folder</title>
<path fill="none" stroke="black" d="M310.99,-71.7C310.99,-63.98 310.99,-54.71 310.99,-46.11"/>
<polygon fill="black" stroke="black" points="314.49,-46.1 310.99,-36.1 307.49,-46.1 314.49,-46.1"/>
</g>
</g>
</svg>
