<?xml version="1.0" encoding="UTF-8" standalone="no"?>
<!DOCTYPE svg PUBLIC "-//W3C//DTD SVG 1.1//EN"
 "http://www.w3.org/Graphics/SVG/1.1/DTD/svg11.dtd">
<!-- Generated by graphviz version 2.43.0 (0)
 -->
<!-- Title: MailClient Pages: 1 -->
<svg width="591pt" height="235pt"
 viewBox="0.00 0.00 590.68 234.80" xmlns="http://www.w3.org/2000/svg" xmlns:xlink="http://www.w3.org/1999/xlink">
<g id="graph0" class="graph" transform="scale(1 1) rotate(0) translate(4 230.8)">
<title>MailClient</title>
<polygon fill="white" stroke="transparent" points="-4,4 -4,-230.8 586.68,-230.8 586.68,4 -4,4"/>
<!-- thunderbird_top -->
<g id="node1" class="node">
<title>thunderbird_top</title>
<polygon fill="none" stroke="black" points="146.22,-226.8 0.22,-226.8 0.22,-190.8 146.22,-190.8 146.22,-226.8"/>
<text text-anchor="middle" x="73.22" y="-205.1" font-family="Times,serif" font-size="14.00">Mail Client (2,3,4)</text>
</g>
<!-- dovecot_top -->
<g id="node2" class="node">
<title>dovecot_top</title>
<polygon fill="none" stroke="black" points="276.22,-226.8 164.22,-226.8 164.22,-190.8 276.22,-190.8 276.22,-226.8"/>
<text text-anchor="middle" x="220.22" y="-205.1" font-family="Times,serif" font-size="14.00">Dovecot (1,5)</text>
</g>
<!-- thunderbird_top&#45;&gt;dovecot_top -->
<!-- thunderbird_event1 -->
<g id="node9" class="node">
<title>thunderbird_event1</title>
<ellipse fill="black" stroke="black" cx="84.22" cy="-153" rx="1.8" ry="1.8"/>
</g>
<!-- thunderbird_top&#45;&gt;thunderbird_event1 -->
<g id="edge7" class="edge">
<title>thunderbird_top&#45;&gt;thunderbird_event1</title>
<path fill="none" stroke="black" d="M76.7,-190.78C79.52,-176.99 83.16,-159.17 84.02,-154.93"/>
</g>
<!-- postfix_top -->
<g id="node3" class="node">
<title>postfix_top</title>
<polygon fill="none" stroke="black" points="383.72,-226.8 294.72,-226.8 294.72,-190.8 383.72,-190.8 383.72,-226.8"/>
<text text-anchor="middle" x="339.22" y="-205.1" font-family="Times,serif" font-size="14.00">Postfix (6)</text>
</g>
<!-- dovecot_top&#45;&gt;postfix_top -->
<!-- dovecot_event1 -->
<g id="node12" class="node">
<title>dovecot_event1</title>
<ellipse fill="black" stroke="black" cx="220.22" cy="-153" rx="1.8" ry="1.8"/>
</g>
<!-- dovecot_top&#45;&gt;dovecot_event1 -->
<g id="edge11" class="edge">
<title>dovecot_top&#45;&gt;dovecot_event1</title>
<path fill="none" stroke="black" d="M220.22,-190.78C220.22,-176.99 220.22,-159.17 220.22,-154.93"/>
</g>
<!-- internet_top -->
<g id="node4" class="node">
<title>internet_top</title>
<polygon fill="none" stroke="black" points="500.72,-226.8 401.72,-226.8 401.72,-190.8 500.72,-190.8 500.72,-226.8"/>
<text text-anchor="middle" x="451.22" y="-205.1" font-family="Times,serif" font-size="14.00">Internet (7)</text>
</g>
<!-- postfix_top&#45;&gt;internet_top -->
<!-- postfix_event1 -->
<g id="node15" class="node">
<title>postfix_event1</title>
<ellipse fill="black" stroke="black" cx="339.22" cy="-153" rx="1.8" ry="1.8"/>
</g>
<!-- postfix_top&#45;&gt;postfix_event1 -->
<g id="edge15" class="edge">
<title>postfix_top&#45;&gt;postfix_event1</title>
<path fill="none" stroke="black" d="M339.22,-190.78C339.22,-176.99 339.22,-159.17 339.22,-154.93"/>
</g>
<!-- internet_event1 -->
<g id="node18" class="node">
<title>internet_event1</title>
<ellipse fill="black" stroke="black" cx="449.22" cy="-153" rx="1.8" ry="1.8"/>
</g>
<!-- internet_top&#45;&gt;internet_event1 -->
<g id="edge19" class="edge">
<title>internet_top&#45;&gt;internet_event1</title>
<path fill="none" stroke="black" d="M450.58,-190.78C450.07,-176.99 449.41,-159.17 449.25,-154.93"/>
</g>
<!-- thunderbird_bottom -->
<g id="node5" class="node">
<title>thunderbird_bottom</title>
<polygon fill="none" stroke="black" points="161.72,-36 66.72,-36 66.72,0 161.72,0 161.72,-36"/>
<text text-anchor="middle" x="114.22" y="-14.3" font-family="Times,serif" font-size="14.00">Mail Client</text>
</g>
<!-- dovecot_bottom -->
<g id="node6" class="node">
<title>dovecot_bottom</title>
<polygon fill="none" stroke="black" points="257.22,-36 183.22,-36 183.22,0 257.22,0 257.22,-36"/>
<text text-anchor="middle" x="220.22" y="-14.3" font-family="Times,serif" font-size="14.00">Dovecot</text>
</g>
<!-- thunderbird_bottom&#45;&gt;dovecot_bottom -->
<!-- postfix_bottom -->
<g id="node7" class="node">
<title>postfix_bottom</title>
<polygon fill="none" stroke="black" points="371.72,-36 306.72,-36 306.72,0 371.72,0 371.72,-36"/>
<text text-anchor="middle" x="339.22" y="-14.3" font-family="Times,serif" font-size="14.00">Postfix</text>
</g>
<!-- dovecot_bottom&#45;&gt;postfix_bottom -->
<!-- internet_bottom -->
<g id="node8" class="node">
<title>internet_bottom</title>
<polygon fill="none" stroke="black" points="476.72,-36 401.72,-36 401.72,0 476.72,0 476.72,-36"/>
<text text-anchor="middle" x="439.22" y="-14.3" font-family="Times,serif" font-size="14.00">Internet</text>
</g>
<!-- postfix_bottom&#45;&gt;internet_bottom -->
<!-- thunderbird_event2 -->
<g id="node10" class="node">
<title>thunderbird_event2</title>
<ellipse fill="black" stroke="black" cx="106.22" cy="-113.4" rx="1.8" ry="1.8"/>
</g>
<!-- thunderbird_event1&#45;&gt;thunderbird_event2 -->
<g id="edge8" class="edge">
<title>thunderbird_event1&#45;&gt;thunderbird_event2</title>
<path fill="none" stroke="black" d="M84.76,-151.07C87.83,-145.82 102.96,-119.97 105.77,-115.17"/>
</g>
<!-- thunderbird_event1&#45;&gt;dovecot_event1 -->
<g id="edge23" class="edge">
<title>thunderbird_event1&#45;&gt;dovecot_event1</title>
<path fill="none" stroke="black" d="M86.08,-153C126.82,-153 167.56,-153 208.3,-153"/>
<polygon fill="black" stroke="black" points="208.38,-156.5 218.38,-153 208.38,-149.5 208.38,-156.5"/>
<text text-anchor="middle" x="152.44" y="-141.8" font-family="Times,serif" font-size="14.00">Manage E&#45;Mail (1)</text>
</g>
<!-- thunderbird_event3 -->
<g id="node11" class="node">
<title>thunderbird_event3</title>
<ellipse fill="black" stroke="black" cx="109.22" cy="-73.8" rx="1.8" ry="1.8"/>
</g>
<!-- thunderbird_event2&#45;&gt;thunderbird_event3 -->
<g id="edge9" class="edge">
<title>thunderbird_event2&#45;&gt;thunderbird_event3</title>
<path fill="none" stroke="black" d="M106.29,-111.47C106.69,-106.4 108.63,-82.13 109.11,-76.14"/>
</g>
<!-- thunderbird_event3&#45;&gt;thunderbird_bottom -->
<g id="edge10" class="edge">
<title>thunderbird_event3&#45;&gt;thunderbird_bottom</title>
<path fill="none" stroke="black" d="M109.3,-71.87C109.69,-67.65 111.33,-50.02 112.61,-36.26"/>
</g>
<!-- postfix_event3 -->
<g id="node17" class="node">
<title>postfix_event3</title>
<ellipse fill="black" stroke="black" cx="339.22" cy="-73.8" rx="1.8" ry="1.8"/>
</g>
<!-- thunderbird_event3&#45;&gt;postfix_event3 -->
<g id="edge26" class="edge">
<title>thunderbird_event3&#45;&gt;postfix_event3</title>
<path fill="none" stroke="black" d="M111,-74.25C121.28,-76.81 174.16,-89.63 218.22,-93.6 258.79,-97.25 306.32,-84.38 327.73,-77.65"/>
<polygon fill="black" stroke="black" points="328.84,-80.97 337.23,-74.51 326.64,-74.32 328.84,-80.97"/>
<text text-anchor="middle" x="111.5" y="-97.75" font-family="Times,serif" font-size="14.00">Send E&#45;Mail [Submission] (8,9)</text>
</g>
<!-- dovecot_event2 -->
<g id="node13" class="node">
<title>dovecot_event2</title>
<ellipse fill="black" stroke="black" cx="220.22" cy="-113.4" rx="1.8" ry="1.8"/>
</g>
<!-- dovecot_event1&#45;&gt;dovecot_event2 -->
<g id="edge12" class="edge">
<title>dovecot_event1&#45;&gt;dovecot_event2</title>
<path fill="none" stroke="black" d="M220.22,-151.07C220.22,-146 220.22,-121.73 220.22,-115.74"/>
</g>
<!-- dovecot_event3 -->
<g id="node14" class="node">
<title>dovecot_event3</title>
<ellipse fill="black" stroke="black" cx="220.22" cy="-73.8" rx="1.8" ry="1.8"/>
</g>
<!-- dovecot_event2&#45;&gt;dovecot_event3 -->
<g id="edge13" class="edge">
<title>dovecot_event2&#45;&gt;dovecot_event3</title>
<path fill="none" stroke="black" d="M220.22,-111.47C220.22,-106.4 220.22,-82.13 220.22,-76.14"/>
</g>
<!-- dovecot_event3&#45;&gt;dovecot_bottom -->
<g id="edge14" class="edge">
<title>dovecot_event3&#45;&gt;dovecot_bottom</title>
<path fill="none" stroke="black" d="M220.22,-71.87C220.22,-67.65 220.22,-50.02 220.22,-36.26"/>
</g>
<!-- postfix_event2 -->
<g id="node16" class="node">
<title>postfix_event2</title>
<ellipse fill="black" stroke="black" cx="339.22" cy="-113.4" rx="1.8" ry="1.8"/>
</g>
<!-- postfix_event1&#45;&gt;postfix_event2 -->
<g id="edge16" class="edge">
<title>postfix_event1&#45;&gt;postfix_event2</title>
<path fill="none" stroke="black" d="M339.22,-151.07C339.22,-146 339.22,-121.73 339.22,-115.74"/>
</g>
<!-- postfix_event2&#45;&gt;dovecot_event2 -->
<g id="edge24" class="edge">
<title>postfix_event2&#45;&gt;dovecot_event2</title>
<path fill="none" stroke="black" d="M337.39,-113.4C302.4,-113.4 267.42,-113.4 232.44,-113.4"/>
<polygon fill="black" stroke="black" points="232.08,-109.9 222.08,-113.4 232.08,-116.9 232.08,-109.9"/>
<text text-anchor="middle" x="214.08" y="-117.2" font-family="Times,serif" font-size="14.00">Recieve E&#45;Mail (5)</text>
</g>
<!-- postfix_event2&#45;&gt;postfix_event3 -->
<g id="edge17" class="edge">
<title>postfix_event2&#45;&gt;postfix_event3</title>
<path fill="none" stroke="black" d="M339.22,-111.47C339.22,-106.4 339.22,-82.13 339.22,-76.14"/>
</g>
<!-- postfix_event3&#45;&gt;postfix_bottom -->
<g id="edge18" class="edge">
<title>postfix_event3&#45;&gt;postfix_bottom</title>
<path fill="none" stroke="black" d="M339.22,-71.87C339.22,-67.65 339.22,-50.02 339.22,-36.26"/>
</g>
<!-- internet_event3 -->
<g id="node20" class="node">
<title>internet_event3</title>
<ellipse fill="black" stroke="black" cx="445.22" cy="-73.8" rx="1.8" ry="1.8"/>
</g>
<!-- postfix_event3&#45;&gt;internet_event3 -->
<g id="edge27" class="edge">
<title>postfix_event3&#45;&gt;internet_event3</title>
<path fill="none" stroke="black" d="M341.29,-73.8C371.8,-73.8 402.32,-73.8 432.84,-73.8"/>
<polygon fill="black" stroke="black" points="433.19,-77.3 443.19,-73.8 433.19,-70.3 433.19,-77.3"/>
<text text-anchor="middle" x="307.57" y="-62.6" font-family="Times,serif" font-size="14.00">Send E&#45;Mail [SMTP] (7)</text>
</g>
<!-- internet_event2 -->
<g id="node19" class="node">
<title>internet_event2</title>
<ellipse fill="black" stroke="black" cx="448.22" cy="-113.4" rx="1.8" ry="1.8"/>
</g>
<!-- internet_event1&#45;&gt;internet_event2 -->
<g id="edge20" class="edge">
<title>internet_event1&#45;&gt;internet_event2</title>
<path fill="none" stroke="black" d="M449.19,-151.07C449.06,-146 448.41,-121.73 448.25,-115.74"/>
</g>
<!-- internet_event2&#45;&gt;postfix_event2 -->
<g id="edge25" class="edge">
<title>internet_event2&#45;&gt;postfix_event2</title>
<path fill="none" stroke="black" d="M446.13,-113.4C414.61,-113.4 383.09,-113.4 351.58,-113.4"/>
<polygon fill="black" stroke="black" points="351.34,-109.9 341.34,-113.4 351.34,-116.9 351.34,-109.9"/>
<text text-anchor="middle" x="488.18" y="-117.2" font-family="Times,serif" font-size="14.00">Recieve E&#45;Mail [SMTP] (7)</text>
</g>
<!-- internet_event2&#45;&gt;internet_event3 -->
<g id="edge21" class="edge">
<title>internet_event2&#45;&gt;internet_event3</title>
<path fill="none" stroke="black" d="M448.14,-111.47C447.74,-106.4 445.8,-82.13 445.32,-76.14"/>
</g>
<!-- internet_event3&#45;&gt;internet_bottom -->
<g id="edge22" class="edge">
<title>internet_event3&#45;&gt;internet_bottom</title>
<path fill="none" stroke="black" d="M445.11,-71.87C444.64,-67.65 442.67,-50.02 441.14,-36.26"/>
</g>
</g>
</svg>
