<?xml version="1.0" encoding="UTF-8" standalone="no"?>
<!DOCTYPE svg PUBLIC "-//W3C//DTD SVG 1.1//EN"
 "http://www.w3.org/Graphics/SVG/1.1/DTD/svg11.dtd">
<!-- Generated by graphviz version 2.43.0 (0)
 -->
<!-- Title: MailClient Pages: 1 -->
<svg width="488pt" height="235pt"
 viewBox="0.00 0.00 487.90 234.80" xmlns="http://www.w3.org/2000/svg" xmlns:xlink="http://www.w3.org/1999/xlink">
<g id="graph0" class="graph" transform="scale(1 1) rotate(0) translate(4 230.8)">
<title>MailClient</title>
<polygon fill="white" stroke="transparent" points="-4,4 -4,-230.8 483.9,-230.8 483.9,4 -4,4"/>
<!-- thunderbird_top -->
<g id="node1" class="node">
<title>thunderbird_top</title>
<polygon fill="none" stroke="black" points="127.48,-226.8 32.48,-226.8 32.48,-190.8 127.48,-190.8 127.48,-226.8"/>
<text text-anchor="middle" x="79.98" y="-205.1" font-family="Times,serif" font-size="14.00">Mail Client</text>
</g>
<!-- dovecot_top -->
<g id="node2" class="node">
<title>dovecot_top</title>
<polygon fill="none" stroke="black" points="219.98,-226.8 145.98,-226.8 145.98,-190.8 219.98,-190.8 219.98,-226.8"/>
<text text-anchor="middle" x="182.98" y="-205.1" font-family="Times,serif" font-size="14.00">Dovecot</text>
</g>
<!-- thunderbird_top&#45;&gt;dovecot_top -->
<!-- thunderbird_event1 -->
<g id="node9" class="node">
<title>thunderbird_event1</title>
<ellipse fill="black" stroke="black" cx="79.98" cy="-153" rx="1.8" ry="1.8"/>
</g>
<!-- thunderbird_top&#45;&gt;thunderbird_event1 -->
<g id="edge7" class="edge">
<title>thunderbird_top&#45;&gt;thunderbird_event1</title>
<path fill="none" stroke="black" d="M79.98,-190.78C79.98,-176.99 79.98,-159.17 79.98,-154.93"/>
</g>
<!-- postfix_top -->
<g id="node3" class="node">
<title>postfix_top</title>
<polygon fill="none" stroke="black" points="303.48,-226.8 238.48,-226.8 238.48,-190.8 303.48,-190.8 303.48,-226.8"/>
<text text-anchor="middle" x="270.98" y="-205.1" font-family="Times,serif" font-size="14.00">Postfix</text>
</g>
<!-- dovecot_top&#45;&gt;postfix_top -->
<!-- dovecot_event1 -->
<g id="node12" class="node">
<title>dovecot_event1</title>
<ellipse fill="black" stroke="black" cx="182.98" cy="-153" rx="1.8" ry="1.8"/>
</g>
<!-- dovecot_top&#45;&gt;dovecot_event1 -->
<g id="edge11" class="edge">
<title>dovecot_top&#45;&gt;dovecot_event1</title>
<path fill="none" stroke="black" d="M182.98,-190.78C182.98,-176.99 182.98,-159.17 182.98,-154.93"/>
</g>
<!-- internet_top -->
<g id="node4" class="node">
<title>internet_top</title>
<polygon fill="none" stroke="black" points="396.48,-226.8 321.48,-226.8 321.48,-190.8 396.48,-190.8 396.48,-226.8"/>
<text text-anchor="middle" x="358.98" y="-205.1" font-family="Times,serif" font-size="14.00">Internet</text>
</g>
<!-- postfix_top&#45;&gt;internet_top -->
<!-- postfix_event1 -->
<g id="node15" class="node">
<title>postfix_event1</title>
<ellipse fill="black" stroke="black" cx="270.98" cy="-153" rx="1.8" ry="1.8"/>
</g>
<!-- postfix_top&#45;&gt;postfix_event1 -->
<g id="edge15" class="edge">
<title>postfix_top&#45;&gt;postfix_event1</title>
<path fill="none" stroke="black" d="M270.98,-190.78C270.98,-176.99 270.98,-159.17 270.98,-154.93"/>
</g>
<!-- internet_event1 -->
<g id="node18" class="node">
<title>internet_event1</title>
<ellipse fill="black" stroke="black" cx="358.98" cy="-153" rx="1.8" ry="1.8"/>
</g>
<!-- internet_top&#45;&gt;internet_event1 -->
<g id="edge19" class="edge">
<title>internet_top&#45;&gt;internet_event1</title>
<path fill="none" stroke="black" d="M358.98,-190.78C358.98,-176.99 358.98,-159.17 358.98,-154.93"/>
</g>
<!-- thunderbird_bottom -->
<g id="node5" class="node">
<title>thunderbird_bottom</title>
<polygon fill="none" stroke="black" points="127.48,-36 32.48,-36 32.48,0 127.48,0 127.48,-36"/>
<text text-anchor="middle" x="79.98" y="-14.3" font-family="Times,serif" font-size="14.00">Mail Client</text>
</g>
<!-- dovecot_bottom -->
<g id="node6" class="node">
<title>dovecot_bottom</title>
<polygon fill="none" stroke="black" points="219.98,-36 145.98,-36 145.98,0 219.98,0 219.98,-36"/>
<text text-anchor="middle" x="182.98" y="-14.3" font-family="Times,serif" font-size="14.00">Dovecot</text>
</g>
<!-- thunderbird_bottom&#45;&gt;dovecot_bottom -->
<!-- postfix_bottom -->
<g id="node7" class="node">
<title>postfix_bottom</title>
<polygon fill="none" stroke="black" points="303.48,-36 238.48,-36 238.48,0 303.48,0 303.48,-36"/>
<text text-anchor="middle" x="270.98" y="-14.3" font-family="Times,serif" font-size="14.00">Postfix</text>
</g>
<!-- dovecot_bottom&#45;&gt;postfix_bottom -->
<!-- internet_bottom -->
<g id="node8" class="node">
<title>internet_bottom</title>
<polygon fill="none" stroke="black" points="396.48,-36 321.48,-36 321.48,0 396.48,0 396.48,-36"/>
<text text-anchor="middle" x="358.98" y="-14.3" font-family="Times,serif" font-size="14.00">Internet</text>
</g>
<!-- postfix_bottom&#45;&gt;internet_bottom -->
<!-- thunderbird_event2 -->
<g id="node10" class="node">
<title>thunderbird_event2</title>
<ellipse fill="black" stroke="black" cx="79.98" cy="-113.4" rx="1.8" ry="1.8"/>
</g>
<!-- thunderbird_event1&#45;&gt;thunderbird_event2 -->
<g id="edge8" class="edge">
<title>thunderbird_event1&#45;&gt;thunderbird_event2</title>
<path fill="none" stroke="black" d="M79.98,-151.07C79.98,-146 79.98,-121.73 79.98,-115.74"/>
</g>
<!-- thunderbird_event1&#45;&gt;dovecot_event1 -->
<g id="edge23" class="edge">
<title>thunderbird_event1&#45;&gt;dovecot_event1</title>
<path fill="none" stroke="black" d="M81.99,-153C111.65,-153 141.3,-153 170.95,-153"/>
<polygon fill="black" stroke="black" points="171.01,-156.5 181.01,-153 171.01,-149.5 171.01,-156.5"/>
<text text-anchor="middle" x="76.84" y="-156.8" font-family="Times,serif" font-size="14.00">Manage E&#45;Mail</text>
</g>
<!-- thunderbird_event3 -->
<g id="node11" class="node">
<title>thunderbird_event3</title>
<ellipse fill="black" stroke="black" cx="79.98" cy="-73.8" rx="1.8" ry="1.8"/>
</g>
<!-- thunderbird_event2&#45;&gt;thunderbird_event3 -->
<g id="edge9" class="edge">
<title>thunderbird_event2&#45;&gt;thunderbird_event3</title>
<path fill="none" stroke="black" d="M79.98,-111.47C79.98,-106.4 79.98,-82.13 79.98,-76.14"/>
</g>
<!-- thunderbird_event3&#45;&gt;thunderbird_bottom -->
<g id="edge10" class="edge">
<title>thunderbird_event3&#45;&gt;thunderbird_bottom</title>
<path fill="none" stroke="black" d="M79.98,-71.87C79.98,-67.65 79.98,-50.02 79.98,-36.26"/>
</g>
<!-- postfix_event3 -->
<g id="node17" class="node">
<title>postfix_event3</title>
<ellipse fill="black" stroke="black" cx="270.98" cy="-73.8" rx="1.8" ry="1.8"/>
</g>
<!-- thunderbird_event3&#45;&gt;postfix_event3 -->
<g id="edge26" class="edge">
<title>thunderbird_event3&#45;&gt;postfix_event3</title>
<path fill="none" stroke="black" d="M81.7,-74.52C91.61,-78.6 142.59,-98.42 184.98,-93.6 211.89,-90.54 242.64,-82.27 259.09,-77.44"/>
<polygon fill="black" stroke="black" points="260.33,-80.72 268.88,-74.47 258.3,-74.02 260.33,-80.72"/>
<text text-anchor="middle" x="92.5" y="-97.4" font-family="Times,serif" font-size="14.00">Send E&#45;Mail (Submission)</text>
</g>
<!-- dovecot_event2 -->
<g id="node13" class="node">
<title>dovecot_event2</title>
<ellipse fill="black" stroke="black" cx="182.98" cy="-113.4" rx="1.8" ry="1.8"/>
</g>
<!-- dovecot_event1&#45;&gt;dovecot_event2 -->
<g id="edge12" class="edge">
<title>dovecot_event1&#45;&gt;dovecot_event2</title>
<path fill="none" stroke="black" d="M182.98,-151.07C182.98,-146 182.98,-121.73 182.98,-115.74"/>
</g>
<!-- dovecot_event3 -->
<g id="node14" class="node">
<title>dovecot_event3</title>
<ellipse fill="black" stroke="black" cx="182.98" cy="-73.8" rx="1.8" ry="1.8"/>
</g>
<!-- dovecot_event2&#45;&gt;dovecot_event3 -->
<g id="edge13" class="edge">
<title>dovecot_event2&#45;&gt;dovecot_event3</title>
<path fill="none" stroke="black" d="M182.98,-111.47C182.98,-106.4 182.98,-82.13 182.98,-76.14"/>
</g>
<!-- dovecot_event3&#45;&gt;dovecot_bottom -->
<g id="edge14" class="edge">
<title>dovecot_event3&#45;&gt;dovecot_bottom</title>
<path fill="none" stroke="black" d="M182.98,-71.87C182.98,-67.65 182.98,-50.02 182.98,-36.26"/>
</g>
<!-- postfix_event2 -->
<g id="node16" class="node">
<title>postfix_event2</title>
<ellipse fill="black" stroke="black" cx="270.98" cy="-113.4" rx="1.8" ry="1.8"/>
</g>
<!-- postfix_event1&#45;&gt;postfix_event2 -->
<g id="edge16" class="edge">
<title>postfix_event1&#45;&gt;postfix_event2</title>
<path fill="none" stroke="black" d="M270.98,-151.07C270.98,-146 270.98,-121.73 270.98,-115.74"/>
</g>
<!-- postfix_event2&#45;&gt;dovecot_event2 -->
<g id="edge24" class="edge">
<title>postfix_event2&#45;&gt;dovecot_event2</title>
<path fill="none" stroke="black" d="M268.97,-113.4C244.38,-113.4 219.79,-113.4 195.21,-113.4"/>
<polygon fill="black" stroke="black" points="195.04,-109.9 185.04,-113.4 195.04,-116.9 195.04,-109.9"/>
<text text-anchor="middle" x="173.4" y="-117.2" font-family="Times,serif" font-size="14.00">Recieve E&#45;Mail</text>
</g>
<!-- postfix_event2&#45;&gt;postfix_event3 -->
<g id="edge17" class="edge">
<title>postfix_event2&#45;&gt;postfix_event3</title>
<path fill="none" stroke="black" d="M270.98,-111.47C270.98,-106.4 270.98,-82.13 270.98,-76.14"/>
</g>
<!-- postfix_event3&#45;&gt;postfix_bottom -->
<g id="edge18" class="edge">
<title>postfix_event3&#45;&gt;postfix_bottom</title>
<path fill="none" stroke="black" d="M270.98,-71.87C270.98,-67.65 270.98,-50.02 270.98,-36.26"/>
</g>
<!-- internet_event3 -->
<g id="node20" class="node">
<title>internet_event3</title>
<ellipse fill="black" stroke="black" cx="358.98" cy="-73.8" rx="1.8" ry="1.8"/>
</g>
<!-- postfix_event3&#45;&gt;internet_event3 -->
<g id="edge27" class="edge">
<title>postfix_event3&#45;&gt;internet_event3</title>
<path fill="none" stroke="black" d="M273.04,-73.8C297.63,-73.8 322.22,-73.8 346.8,-73.8"/>
<polygon fill="black" stroke="black" points="346.97,-77.3 356.97,-73.8 346.97,-70.3 346.97,-77.3"/>
<text text-anchor="middle" x="387.61" y="-62.6" font-family="Times,serif" font-size="14.00">Send E&#45;Mail (SMTP)</text>
</g>
<!-- internet_event2 -->
<g id="node19" class="node">
<title>internet_event2</title>
<ellipse fill="black" stroke="black" cx="358.98" cy="-113.4" rx="1.8" ry="1.8"/>
</g>
<!-- internet_event1&#45;&gt;internet_event2 -->
<g id="edge20" class="edge">
<title>internet_event1&#45;&gt;internet_event2</title>
<path fill="none" stroke="black" d="M358.98,-151.07C358.98,-146 358.98,-121.73 358.98,-115.74"/>
</g>
<!-- internet_event2&#45;&gt;postfix_event2 -->
<g id="edge25" class="edge">
<title>internet_event2&#45;&gt;postfix_event2</title>
<path fill="none" stroke="black" d="M356.97,-113.4C332.38,-113.4 307.79,-113.4 283.21,-113.4"/>
<polygon fill="black" stroke="black" points="283.04,-109.9 273.04,-113.4 283.04,-116.9 283.04,-109.9"/>
<text text-anchor="middle" x="397.4" y="-117.2" font-family="Times,serif" font-size="14.00">Recieve E&#45;Mail (SMTP)</text>
</g>
<!-- internet_event2&#45;&gt;internet_event3 -->
<g id="edge21" class="edge">
<title>internet_event2&#45;&gt;internet_event3</title>
<path fill="none" stroke="black" d="M358.98,-111.47C358.98,-106.4 358.98,-82.13 358.98,-76.14"/>
</g>
<!-- internet_event3&#45;&gt;internet_bottom -->
<g id="edge22" class="edge">
<title>internet_event3&#45;&gt;internet_bottom</title>
<path fill="none" stroke="black" d="M358.98,-71.87C358.98,-67.65 358.98,-50.02 358.98,-36.26"/>
</g>
</g>
</svg>
