<?xml version="1.0" encoding="UTF-8" standalone="no"?>
<!DOCTYPE svg PUBLIC "-//W3C//DTD SVG 1.1//EN"
 "http://www.w3.org/Graphics/SVG/1.1/DTD/svg11.dtd">
<!-- Generated by graphviz version 2.43.0 (0)
 -->
<!-- Title: EMailRelayRecieveOutside Pages: 1 -->
<svg width="356pt" height="260pt"
 viewBox="0.00 0.00 356.09 260.00" xmlns="http://www.w3.org/2000/svg" xmlns:xlink="http://www.w3.org/1999/xlink">
<g id="graph0" class="graph" transform="scale(1 1) rotate(0) translate(4 256)">
<title>EMailRelayRecieveOutside</title>
<polygon fill="white" stroke="transparent" points="-4,4 -4,-256 352.09,-256 352.09,4 -4,4"/>
<!-- VPS_Postfix_MTA -->
<g id="node1" class="node">
<title>VPS_Postfix_MTA</title>
<ellipse fill="none" stroke="black" cx="159.24" cy="-234" rx="91.78" ry="18"/>
<text text-anchor="middle" x="159.24" y="-230.3" font-family="Times,serif" font-size="14.00">VPS_Postfix_MTA</text>
</g>
<!-- Home_Postfix_MTA -->
<g id="node2" class="node">
<title>Home_Postfix_MTA</title>
<ellipse fill="none" stroke="black" cx="159.24" cy="-162" rx="100.18" ry="18"/>
<text text-anchor="middle" x="159.24" y="-158.3" font-family="Times,serif" font-size="14.00">Home_Postfix_MTA</text>
</g>
<!-- VPS_Postfix_MTA&#45;&gt;Home_Postfix_MTA -->
<g id="edge1" class="edge">
<title>VPS_Postfix_MTA&#45;&gt;Home_Postfix_MTA</title>
<path fill="none" stroke="black" d="M159.24,-215.7C159.24,-207.98 159.24,-198.71 159.24,-190.11"/>
<polygon fill="black" stroke="black" points="162.74,-190.1 159.24,-180.1 155.74,-190.1 162.74,-190.1"/>
</g>
<!-- Home_Dovecot_MDA -->
<g id="node3" class="node">
<title>Home_Dovecot_MDA</title>
<ellipse fill="none" stroke="black" cx="159.24" cy="-90" rx="107.48" ry="18"/>
<text text-anchor="middle" x="159.24" y="-86.3" font-family="Times,serif" font-size="14.00">Home_Dovecot_MDA</text>
</g>
<!-- Home_Postfix_MTA&#45;&gt;Home_Dovecot_MDA -->
<g id="edge2" class="edge">
<title>Home_Postfix_MTA&#45;&gt;Home_Dovecot_MDA</title>
<path fill="none" stroke="black" d="M159.24,-143.7C159.24,-135.98 159.24,-126.71 159.24,-118.11"/>
<polygon fill="black" stroke="black" points="162.74,-118.1 159.24,-108.1 155.74,-118.1 162.74,-118.1"/>
</g>
<!-- Home_Inbox -->
<g id="node4" class="node">
<title>Home_Inbox</title>
<ellipse fill="none" stroke="black" cx="68.24" cy="-18" rx="68.49" ry="18"/>
<text text-anchor="middle" x="68.24" y="-14.3" font-family="Times,serif" font-size="14.00">Home_Inbox</text>
</g>
<!-- Home_Dovecot_MDA&#45;&gt;Home_Inbox -->
<g id="edge3" class="edge">
<title>Home_Dovecot_MDA&#45;&gt;Home_Inbox</title>
<path fill="none" stroke="black" d="M129.02,-65.75C118.89,-57.96 107.61,-49.28 97.56,-41.55"/>
<polygon fill="black" stroke="black" points="127.16,-68.73 137.22,-72.05 131.42,-63.18 127.16,-68.73"/>
<polygon fill="black" stroke="black" points="99.5,-38.63 89.44,-35.31 95.24,-44.18 99.5,-38.63"/>
</g>
<!-- Home_EMail_MUA -->
<g id="node5" class="node">
<title>Home_EMail_MUA</title>
<ellipse fill="none" stroke="black" cx="251.24" cy="-18" rx="96.68" ry="18"/>
<text text-anchor="middle" x="251.24" y="-14.3" font-family="Times,serif" font-size="14.00">Home_EMail_MUA</text>
</g>
<!-- Home_Dovecot_MDA&#45;&gt;Home_EMail_MUA -->
<g id="edge4" class="edge">
<title>Home_Dovecot_MDA&#45;&gt;Home_EMail_MUA</title>
<path fill="none" stroke="black" d="M181.51,-72.05C193.47,-62.96 208.36,-51.63 221.32,-41.77"/>
<polygon fill="black" stroke="black" points="223.66,-44.39 229.5,-35.55 219.42,-38.82 223.66,-44.39"/>
</g>
</g>
</svg>
