<?xml version="1.0" encoding="UTF-8" standalone="no"?>
<!DOCTYPE svg PUBLIC "-//W3C//DTD SVG 1.1//EN"
 "http://www.w3.org/Graphics/SVG/1.1/DTD/svg11.dtd">
<!-- Generated by graphviz version 2.43.0 (0)
 -->
<!-- Title: EMailRelaySendOutside Pages: 1 -->
<svg width="432pt" height="188pt"
 viewBox="0.00 0.00 431.78 188.00" xmlns="http://www.w3.org/2000/svg" xmlns:xlink="http://www.w3.org/1999/xlink">
<g id="graph0" class="graph" transform="scale(1 1) rotate(0) translate(4 184)">
<title>EMailRelaySendOutside</title>
<polygon fill="white" stroke="transparent" points="-4,4 -4,-184 427.78,-184 427.78,4 -4,4"/>
<!-- Mobile_EMail_MUA -->
<g id="node1" class="node">
<title>Mobile_EMail_MUA</title>
<ellipse fill="none" stroke="black" cx="201.64" cy="-162" rx="101.28" ry="18"/>
<text text-anchor="middle" x="201.64" y="-158.3" font-family="Times,serif" font-size="14.00">Mobile_EMail_MUA</text>
</g>
<!-- VPS_Postfix_MTA -->
<g id="node2" class="node">
<title>VPS_Postfix_MTA</title>
<ellipse fill="none" stroke="black" cx="91.64" cy="-90" rx="91.78" ry="18"/>
<text text-anchor="middle" x="91.64" y="-86.3" font-family="Times,serif" font-size="14.00">VPS_Postfix_MTA</text>
</g>
<!-- Mobile_EMail_MUA&#45;&gt;VPS_Postfix_MTA -->
<g id="edge1" class="edge">
<title>Mobile_EMail_MUA&#45;&gt;VPS_Postfix_MTA</title>
<path fill="none" stroke="black" d="M175.85,-144.59C160.96,-135.11 142.04,-123.07 125.9,-112.8"/>
<polygon fill="black" stroke="black" points="127.59,-109.73 117.27,-107.31 123.83,-115.63 127.59,-109.73"/>
</g>
<!-- HOME_Dovecot_MDA -->
<g id="node3" class="node">
<title>HOME_Dovecot_MDA</title>
<ellipse fill="none" stroke="black" cx="312.64" cy="-90" rx="111.28" ry="18"/>
<text text-anchor="middle" x="312.64" y="-86.3" font-family="Times,serif" font-size="14.00">HOME_Dovecot_MDA</text>
</g>
<!-- Mobile_EMail_MUA&#45;&gt;HOME_Dovecot_MDA -->
<g id="edge2" class="edge">
<title>Mobile_EMail_MUA&#45;&gt;HOME_Dovecot_MDA</title>
<path fill="none" stroke="black" d="M227.67,-144.59C242.59,-135.18 261.52,-123.24 277.72,-113.02"/>
<polygon fill="black" stroke="black" points="279.8,-115.85 286.4,-107.55 276.07,-109.93 279.8,-115.85"/>
</g>
<!-- Internet -->
<g id="node5" class="node">
<title>Internet</title>
<ellipse fill="none" stroke="black" cx="91.64" cy="-18" rx="48.99" ry="18"/>
<text text-anchor="middle" x="91.64" y="-14.3" font-family="Times,serif" font-size="14.00">Internet</text>
</g>
<!-- VPS_Postfix_MTA&#45;&gt;Internet -->
<g id="edge4" class="edge">
<title>VPS_Postfix_MTA&#45;&gt;Internet</title>
<path fill="none" stroke="black" d="M91.64,-71.7C91.64,-63.98 91.64,-54.71 91.64,-46.11"/>
<polygon fill="black" stroke="black" points="95.14,-46.1 91.64,-36.1 88.14,-46.1 95.14,-46.1"/>
</g>
<!-- Sent_folder -->
<g id="node4" class="node">
<title>Sent_folder</title>
<ellipse fill="none" stroke="black" cx="312.64" cy="-18" rx="63.89" ry="18"/>
<text text-anchor="middle" x="312.64" y="-14.3" font-family="Times,serif" font-size="14.00">Sent_folder</text>
</g>
<!-- HOME_Dovecot_MDA&#45;&gt;Sent_folder -->
<g id="edge3" class="edge">
<title>HOME_Dovecot_MDA&#45;&gt;Sent_folder</title>
<path fill="none" stroke="black" d="M312.64,-71.7C312.64,-63.98 312.64,-54.71 312.64,-46.11"/>
<polygon fill="black" stroke="black" points="316.14,-46.1 312.64,-36.1 309.14,-46.1 316.14,-46.1"/>
</g>
</g>
</svg>
