<?xml version="1.0" encoding="UTF-8" standalone="no"?>
<!DOCTYPE svg PUBLIC "-//W3C//DTD SVG 1.1//EN"
 "http://www.w3.org/Graphics/SVG/1.1/DTD/svg11.dtd">
<!-- Generated by graphviz version 2.43.0 (0)
 -->
<!-- Title: EMailRelaySend Pages: 1 -->
<svg width="191pt" height="188pt"
 viewBox="0.00 0.00 191.28 188.00" xmlns="http://www.w3.org/2000/svg" xmlns:xlink="http://www.w3.org/1999/xlink">
<g id="graph0" class="graph" transform="scale(1 1) rotate(0) translate(4 184)">
<title>EMailRelaySend</title>
<polygon fill="white" stroke="transparent" points="-4,4 -4,-184 187.28,-184 187.28,4 -4,4"/>
<!-- Home_Mail_MUA -->
<g id="node1" class="node">
<title>Home_Mail_MUA</title>
<ellipse fill="none" stroke="black" cx="91.64" cy="-162" rx="90.18" ry="18"/>
<text text-anchor="middle" x="91.64" y="-158.3" font-family="Times,serif" font-size="14.00">Home_Mail_MUA</text>
</g>
<!-- VPS_Postfix_MTA -->
<g id="node2" class="node">
<title>VPS_Postfix_MTA</title>
<ellipse fill="none" stroke="black" cx="91.64" cy="-90" rx="91.78" ry="18"/>
<text text-anchor="middle" x="91.64" y="-86.3" font-family="Times,serif" font-size="14.00">VPS_Postfix_MTA</text>
</g>
<!-- Home_Mail_MUA&#45;&gt;VPS_Postfix_MTA -->
<g id="edge1" class="edge">
<title>Home_Mail_MUA&#45;&gt;VPS_Postfix_MTA</title>
<path fill="none" stroke="black" d="M91.64,-143.7C91.64,-135.98 91.64,-126.71 91.64,-118.11"/>
<polygon fill="black" stroke="black" points="95.14,-118.1 91.64,-108.1 88.14,-118.1 95.14,-118.1"/>
</g>
<!-- Internet -->
<g id="node3" class="node">
<title>Internet</title>
<ellipse fill="none" stroke="black" cx="91.64" cy="-18" rx="48.99" ry="18"/>
<text text-anchor="middle" x="91.64" y="-14.3" font-family="Times,serif" font-size="14.00">Internet</text>
</g>
<!-- VPS_Postfix_MTA&#45;&gt;Internet -->
<g id="edge2" class="edge">
<title>VPS_Postfix_MTA&#45;&gt;Internet</title>
<path fill="none" stroke="black" d="M91.64,-61.67C91.64,-56.69 91.64,-51.49 91.64,-46.51"/>
<polygon fill="black" stroke="black" points="88.14,-61.7 91.64,-71.7 95.14,-61.7 88.14,-61.7"/>
<polygon fill="black" stroke="black" points="95.14,-46.1 91.64,-36.1 88.14,-46.1 95.14,-46.1"/>
</g>
</g>
</svg>
