<?xml version="1.0" encoding="UTF-8" standalone="no"?>
<!DOCTYPE svg PUBLIC "-//W3C//DTD SVG 1.1//EN"
 "http://www.w3.org/Graphics/SVG/1.1/DTD/svg11.dtd">
<!-- Generated by graphviz version 2.43.0 (0)
 -->
<!-- Title: SendMailNOIP Pages: 1 -->
<svg width="506pt" height="195pt"
 viewBox="0.00 0.00 505.92 195.20" xmlns="http://www.w3.org/2000/svg" xmlns:xlink="http://www.w3.org/1999/xlink">
<g id="graph0" class="graph" transform="scale(1 1) rotate(0) translate(4 191.2)">
<title>SendMailNOIP</title>
<polygon fill="white" stroke="transparent" points="-4,4 -4,-191.2 501.92,-191.2 501.92,4 -4,4"/>
<!-- you_top -->
<g id="node1" class="node">
<title>you_top</title>
<polygon fill="none" stroke="black" points="207.34,-187.2 106.34,-187.2 106.34,-151.2 207.34,-151.2 207.34,-187.2"/>
<text text-anchor="middle" x="156.84" y="-165.5" font-family="Times,serif" font-size="14.00">Your Server</text>
</g>
<!-- noip_top -->
<g id="node2" class="node">
<title>noip_top</title>
<polygon fill="none" stroke="black" points="286.34,-187.2 225.34,-187.2 225.34,-151.2 286.34,-151.2 286.34,-187.2"/>
<text text-anchor="middle" x="255.84" y="-165.5" font-family="Times,serif" font-size="14.00">NO&#45;IP</text>
</g>
<!-- you_top&#45;&gt;noip_top -->
<!-- you_event1 -->
<g id="node7" class="node">
<title>you_event1</title>
<ellipse fill="black" stroke="black" cx="156.84" cy="-113.4" rx="1.8" ry="1.8"/>
</g>
<!-- you_top&#45;&gt;you_event1 -->
<g id="edge5" class="edge">
<title>you_top&#45;&gt;you_event1</title>
<path fill="none" stroke="black" d="M156.84,-151.18C156.84,-137.39 156.84,-119.57 156.84,-115.33"/>
</g>
<!-- email_contact_top -->
<g id="node3" class="node">
<title>email_contact_top</title>
<polygon fill="none" stroke="black" points="427.34,-187.2 304.34,-187.2 304.34,-151.2 427.34,-151.2 427.34,-187.2"/>
<text text-anchor="middle" x="365.84" y="-165.5" font-family="Times,serif" font-size="14.00">E&#45;Mail Contact</text>
</g>
<!-- noip_top&#45;&gt;email_contact_top -->
<!-- noip_event1 -->
<g id="node9" class="node">
<title>noip_event1</title>
<ellipse fill="black" stroke="black" cx="255.84" cy="-113.4" rx="1.8" ry="1.8"/>
</g>
<!-- noip_top&#45;&gt;noip_event1 -->
<g id="edge8" class="edge">
<title>noip_top&#45;&gt;noip_event1</title>
<path fill="none" stroke="black" d="M255.84,-151.18C255.84,-137.39 255.84,-119.57 255.84,-115.33"/>
</g>
<!-- email_contact_event1 -->
<g id="node11" class="node">
<title>email_contact_event1</title>
<ellipse fill="black" stroke="black" cx="365.84" cy="-113.4" rx="1.8" ry="1.8"/>
</g>
<!-- email_contact_top&#45;&gt;email_contact_event1 -->
<g id="edge11" class="edge">
<title>email_contact_top&#45;&gt;email_contact_event1</title>
<path fill="none" stroke="black" d="M365.84,-151.18C365.84,-137.39 365.84,-119.57 365.84,-115.33"/>
</g>
<!-- you_bottom -->
<g id="node4" class="node">
<title>you_bottom</title>
<polygon fill="none" stroke="black" points="207.34,-36 106.34,-36 106.34,0 207.34,0 207.34,-36"/>
<text text-anchor="middle" x="156.84" y="-14.3" font-family="Times,serif" font-size="14.00">Your Server</text>
</g>
<!-- noip_bottom -->
<g id="node5" class="node">
<title>noip_bottom</title>
<polygon fill="none" stroke="black" points="286.34,-36 225.34,-36 225.34,0 286.34,0 286.34,-36"/>
<text text-anchor="middle" x="255.84" y="-14.3" font-family="Times,serif" font-size="14.00">NO&#45;IP</text>
</g>
<!-- you_bottom&#45;&gt;noip_bottom -->
<!-- email_contact_bottom -->
<g id="node6" class="node">
<title>email_contact_bottom</title>
<polygon fill="none" stroke="black" points="427.34,-36 304.34,-36 304.34,0 427.34,0 427.34,-36"/>
<text text-anchor="middle" x="365.84" y="-14.3" font-family="Times,serif" font-size="14.00">E&#45;Mail Contact</text>
</g>
<!-- noip_bottom&#45;&gt;email_contact_bottom -->
<!-- you_event2 -->
<g id="node8" class="node">
<title>you_event2</title>
<ellipse fill="black" stroke="black" cx="156.84" cy="-73.8" rx="1.8" ry="1.8"/>
</g>
<!-- you_event1&#45;&gt;you_event2 -->
<g id="edge6" class="edge">
<title>you_event1&#45;&gt;you_event2</title>
<path fill="none" stroke="black" d="M156.84,-111.47C156.84,-106.4 156.84,-82.13 156.84,-76.14"/>
</g>
<!-- you_event1&#45;&gt;noip_event1 -->
<g id="edge14" class="edge">
<title>you_event1&#45;&gt;noip_event1</title>
<path fill="none" stroke="black" d="M158.78,-113.4C187.16,-113.4 215.53,-113.4 243.91,-113.4"/>
<polygon fill="black" stroke="black" points="243.95,-116.9 253.95,-113.4 243.95,-109.9 243.95,-116.9"/>
<text text-anchor="middle" x="103" y="-117.2" font-family="Times,serif" font-size="14.00">Sends E&#45;Mail over port 2567</text>
</g>
<!-- you_event2&#45;&gt;you_bottom -->
<g id="edge7" class="edge">
<title>you_event2&#45;&gt;you_bottom</title>
<path fill="none" stroke="black" d="M156.84,-71.87C156.84,-67.65 156.84,-50.02 156.84,-36.26"/>
</g>
<!-- noip_event2 -->
<g id="node10" class="node">
<title>noip_event2</title>
<ellipse fill="black" stroke="black" cx="255.84" cy="-73.8" rx="1.8" ry="1.8"/>
</g>
<!-- noip_event1&#45;&gt;noip_event2 -->
<g id="edge9" class="edge">
<title>noip_event1&#45;&gt;noip_event2</title>
<path fill="none" stroke="black" d="M255.84,-111.47C255.84,-106.4 255.84,-82.13 255.84,-76.14"/>
</g>
<!-- noip_event2&#45;&gt;noip_bottom -->
<g id="edge10" class="edge">
<title>noip_event2&#45;&gt;noip_bottom</title>
<path fill="none" stroke="black" d="M255.84,-71.87C255.84,-67.65 255.84,-50.02 255.84,-36.26"/>
</g>
<!-- email_contact_event2 -->
<g id="node12" class="node">
<title>email_contact_event2</title>
<ellipse fill="black" stroke="black" cx="365.84" cy="-73.8" rx="1.8" ry="1.8"/>
</g>
<!-- noip_event2&#45;&gt;email_contact_event2 -->
<g id="edge15" class="edge">
<title>noip_event2&#45;&gt;email_contact_event2</title>
<path fill="none" stroke="black" d="M257.99,-73.8C289.8,-73.8 321.6,-73.8 353.41,-73.8"/>
<polygon fill="black" stroke="black" points="353.74,-77.3 363.74,-73.8 353.74,-70.3 353.74,-77.3"/>
<text text-anchor="middle" x="404.42" y="-62.6" font-family="Times,serif" font-size="14.00">Sends E&#45;mail over port 25</text>
</g>
<!-- email_contact_event1&#45;&gt;email_contact_event2 -->
<g id="edge12" class="edge">
<title>email_contact_event1&#45;&gt;email_contact_event2</title>
<path fill="none" stroke="black" d="M365.84,-111.47C365.84,-106.4 365.84,-82.13 365.84,-76.14"/>
</g>
<!-- email_contact_event2&#45;&gt;email_contact_bottom -->
<g id="edge13" class="edge">
<title>email_contact_event2&#45;&gt;email_contact_bottom</title>
<path fill="none" stroke="black" d="M365.84,-71.87C365.84,-67.65 365.84,-50.02 365.84,-36.26"/>
</g>
</g>
</svg>
