<?xml version="1.0" encoding="UTF-8" standalone="no"?>
<!DOCTYPE svg PUBLIC "-//W3C//DTD SVG 1.1//EN"
 "http://www.w3.org/Graphics/SVG/1.1/DTD/svg11.dtd">
<!-- Generated by graphviz version 2.43.0 (0)
 -->
<!-- Title: HomeAssistant Pages: 1 -->
<svg width="820pt" height="291pt"
 viewBox="0.00 0.00 820.34 291.00" xmlns="http://www.w3.org/2000/svg" xmlns:xlink="http://www.w3.org/1999/xlink">
<g id="graph0" class="graph" transform="scale(1 1) rotate(0) translate(4 287)">
<title>HomeAssistant</title>
<polygon fill="white" stroke="transparent" points="-4,4 -4,-287 816.34,-287 816.34,4 -4,4"/>
<!-- Home_Assist -->
<g id="node1" class="node">
<title>Home_Assist</title>
<ellipse fill="none" stroke="black" cx="573.94" cy="-265" rx="70.39" ry="18"/>
<text text-anchor="middle" x="573.94" y="-261.3" font-family="Times,serif" font-size="14.00">Home_Assist</text>
</g>
<!-- ZWave_JS_UI -->
<g id="node2" class="node">
<title>ZWave_JS_UI</title>
<ellipse fill="none" stroke="black" cx="391.94" cy="-178" rx="71.49" ry="18"/>
<text text-anchor="middle" x="391.94" y="-174.3" font-family="Times,serif" font-size="14.00">ZWave_JS_UI</text>
</g>
<!-- Home_Assist&#45;&gt;ZWave_JS_UI -->
<g id="edge1" class="edge">
<title>Home_Assist&#45;&gt;ZWave_JS_UI</title>
<path fill="none" stroke="black" d="M532.07,-244.44C502.45,-230.61 462.93,-212.15 433.41,-198.37"/>
<polygon fill="black" stroke="black" points="530.86,-247.74 541.4,-248.8 533.83,-241.4 530.86,-247.74"/>
<polygon fill="black" stroke="black" points="434.74,-195.13 424.2,-194.06 431.78,-201.47 434.74,-195.13"/>
<text text-anchor="middle" x="503.94" y="-217.8" font-family="Times,serif" font-size="14.00">ws</text>
</g>
<!-- Camera -->
<g id="node3" class="node">
<title>Camera</title>
<ellipse fill="none" stroke="black" cx="527.94" cy="-178" rx="46.59" ry="18"/>
<text text-anchor="middle" x="527.94" y="-174.3" font-family="Times,serif" font-size="14.00">Camera</text>
</g>
<!-- Home_Assist&#45;&gt;Camera -->
<g id="edge2" class="edge">
<title>Home_Assist&#45;&gt;Camera</title>
<path fill="none" stroke="black" d="M559.79,-237.85C554.13,-227.39 547.63,-215.38 541.98,-204.94"/>
<polygon fill="black" stroke="black" points="556.8,-239.67 564.63,-246.8 562.95,-236.34 556.8,-239.67"/>
<polygon fill="black" stroke="black" points="544.92,-203.01 537.08,-195.89 538.76,-206.35 544.92,-203.01"/>
<text text-anchor="middle" x="560.94" y="-217.8" font-family="Times,serif" font-size="14.00">ip</text>
</g>
<!-- TV -->
<g id="node4" class="node">
<title>TV</title>
<ellipse fill="none" stroke="black" cx="619.94" cy="-178" rx="27" ry="18"/>
<text text-anchor="middle" x="619.94" y="-174.3" font-family="Times,serif" font-size="14.00">TV</text>
</g>
<!-- Home_Assist&#45;&gt;TV -->
<g id="edge3" class="edge">
<title>Home_Assist&#45;&gt;TV</title>
<path fill="none" stroke="black" d="M588.16,-237.73C593.9,-227.12 600.5,-214.92 606.19,-204.41"/>
<polygon fill="black" stroke="black" points="584.93,-236.34 583.25,-246.8 591.09,-239.67 584.93,-236.34"/>
<polygon fill="black" stroke="black" points="609.43,-205.77 611.12,-195.31 603.28,-202.44 609.43,-205.77"/>
<text text-anchor="middle" x="606.94" y="-217.8" font-family="Times,serif" font-size="14.00">ip</text>
</g>
<!-- Receiver -->
<g id="node5" class="node">
<title>Receiver</title>
<ellipse fill="none" stroke="black" cx="715.94" cy="-178" rx="51.19" ry="18"/>
<text text-anchor="middle" x="715.94" y="-174.3" font-family="Times,serif" font-size="14.00">Receiver</text>
</g>
<!-- Home_Assist&#45;&gt;Receiver -->
<g id="edge4" class="edge">
<title>Home_Assist&#45;&gt;Receiver</title>
<path fill="none" stroke="black" d="M608.96,-243.04C631.37,-229.62 660.29,-212.31 682.41,-199.07"/>
<polygon fill="black" stroke="black" points="607.1,-240.07 600.32,-248.21 610.7,-246.08 607.1,-240.07"/>
<polygon fill="black" stroke="black" points="684.35,-201.99 691.13,-193.85 680.76,-195.98 684.35,-201.99"/>
<text text-anchor="middle" x="660.94" y="-217.8" font-family="Times,serif" font-size="14.00">ip</text>
</g>
<!-- USB_Stick -->
<g id="node6" class="node">
<title>USB_Stick</title>
<ellipse fill="none" stroke="black" cx="391.94" cy="-105" rx="59.59" ry="18"/>
<text text-anchor="middle" x="391.94" y="-101.3" font-family="Times,serif" font-size="14.00">USB_Stick</text>
</g>
<!-- ZWave_JS_UI&#45;&gt;USB_Stick -->
<g id="edge5" class="edge">
<title>ZWave_JS_UI&#45;&gt;USB_Stick</title>
<path fill="none" stroke="black" d="M391.94,-149.75C391.94,-144.28 391.94,-138.52 391.94,-133.05"/>
<polygon fill="black" stroke="black" points="388.44,-149.81 391.94,-159.81 395.44,-149.81 388.44,-149.81"/>
<polygon fill="black" stroke="black" points="395.44,-133.03 391.94,-123.03 388.44,-133.03 395.44,-133.03"/>
</g>
<!-- Window_Alarm -->
<g id="node7" class="node">
<title>Window_Alarm</title>
<ellipse fill="none" stroke="black" cx="79.94" cy="-18" rx="79.89" ry="18"/>
<text text-anchor="middle" x="79.94" y="-14.3" font-family="Times,serif" font-size="14.00">Window_Alarm</text>
</g>
<!-- USB_Stick&#45;&gt;Window_Alarm -->
<g id="edge6" class="edge">
<title>USB_Stick&#45;&gt;Window_Alarm</title>
<path fill="none" stroke="black" d="M339.38,-89.68C283.79,-74.54 196.31,-50.7 138.54,-34.96"/>
<polygon fill="black" stroke="black" points="338.65,-93.11 349.21,-92.36 340.49,-86.35 338.65,-93.11"/>
<polygon fill="black" stroke="black" points="139.39,-31.57 128.82,-32.32 137.55,-38.32 139.39,-31.57"/>
<text text-anchor="middle" x="264.94" y="-57.8" font-family="Times,serif" font-size="14.00">zw</text>
</g>
<!-- Door_Alarm -->
<g id="node8" class="node">
<title>Door_Alarm</title>
<ellipse fill="none" stroke="black" cx="243.94" cy="-18" rx="65.79" ry="18"/>
<text text-anchor="middle" x="243.94" y="-14.3" font-family="Times,serif" font-size="14.00">Door_Alarm</text>
</g>
<!-- USB_Stick&#45;&gt;Door_Alarm -->
<g id="edge7" class="edge">
<title>USB_Stick&#45;&gt;Door_Alarm</title>
<path fill="none" stroke="black" d="M356.62,-83.72C333.49,-70.43 303.34,-53.12 280.05,-39.74"/>
<polygon fill="black" stroke="black" points="355.07,-86.86 365.48,-88.8 358.55,-80.79 355.07,-86.86"/>
<polygon fill="black" stroke="black" points="281.59,-36.59 271.17,-34.64 278.1,-42.66 281.59,-36.59"/>
<text text-anchor="middle" x="336.94" y="-57.8" font-family="Times,serif" font-size="14.00">zw</text>
</g>
<!-- Thermostat -->
<g id="node9" class="node">
<title>Thermostat</title>
<ellipse fill="none" stroke="black" cx="391.94" cy="-18" rx="64.19" ry="18"/>
<text text-anchor="middle" x="391.94" y="-14.3" font-family="Times,serif" font-size="14.00">Thermostat</text>
</g>
<!-- USB_Stick&#45;&gt;Thermostat -->
<g id="edge8" class="edge">
<title>USB_Stick&#45;&gt;Thermostat</title>
<path fill="none" stroke="black" d="M391.94,-76.73C391.94,-67.06 391.94,-56.17 391.94,-46.48"/>
<polygon fill="black" stroke="black" points="388.44,-76.8 391.94,-86.8 395.44,-76.8 388.44,-76.8"/>
<polygon fill="black" stroke="black" points="395.44,-46.18 391.94,-36.18 388.44,-46.18 395.44,-46.18"/>
<text text-anchor="middle" x="401.94" y="-57.8" font-family="Times,serif" font-size="14.00">zw</text>
</g>
<!-- Light_Switch -->
<g id="node10" class="node">
<title>Light_Switch</title>
<ellipse fill="none" stroke="black" cx="545.94" cy="-18" rx="71.49" ry="18"/>
<text text-anchor="middle" x="545.94" y="-14.3" font-family="Times,serif" font-size="14.00">Light_Switch</text>
</g>
<!-- USB_Stick&#45;&gt;Light_Switch -->
<g id="edge9" class="edge">
<title>USB_Stick&#45;&gt;Light_Switch</title>
<path fill="none" stroke="black" d="M428.34,-83.91C452.55,-70.55 484.26,-53.05 508.65,-39.58"/>
<polygon fill="black" stroke="black" points="426.54,-80.91 419.48,-88.8 429.92,-87.04 426.54,-80.91"/>
<polygon fill="black" stroke="black" points="510.54,-42.54 517.61,-34.64 507.16,-36.41 510.54,-42.54"/>
<text text-anchor="middle" x="488.94" y="-57.8" font-family="Times,serif" font-size="14.00">zw</text>
</g>
<!-- Motion_Detector -->
<g id="node11" class="node">
<title>Motion_Detector</title>
<ellipse fill="none" stroke="black" cx="723.94" cy="-18" rx="88.28" ry="18"/>
<text text-anchor="middle" x="723.94" y="-14.3" font-family="Times,serif" font-size="14.00">Motion_Detector</text>
</g>
<!-- USB_Stick&#45;&gt;Motion_Detector -->
<g id="edge10" class="edge">
<title>USB_Stick&#45;&gt;Motion_Detector</title>
<path fill="none" stroke="black" d="M446.03,-90.15C504.93,-75.07 598.98,-50.99 661.11,-35.09"/>
<polygon fill="black" stroke="black" points="444.85,-86.84 436.03,-92.71 446.59,-93.62 444.85,-86.84"/>
<polygon fill="black" stroke="black" points="662.35,-38.38 671.17,-32.51 660.62,-31.6 662.35,-38.38"/>
<text text-anchor="middle" x="587.94" y="-57.8" font-family="Times,serif" font-size="14.00">zw</text>
</g>
</g>
</svg>
