<?xml version="1.0" encoding="UTF-8" standalone="no"?>
<!DOCTYPE svg PUBLIC "-//W3C//DTD SVG 1.1//EN"
 "http://www.w3.org/Graphics/SVG/1.1/DTD/svg11.dtd">
<!-- Generated by graphviz version 2.43.0 (0)
 -->
<!-- Title: graphName Pages: 1 -->
<svg width="638pt" height="332pt"
 viewBox="0.00 0.00 638.19 332.00" xmlns="http://www.w3.org/2000/svg" xmlns:xlink="http://www.w3.org/1999/xlink">
<g id="graph0" class="graph" transform="scale(1 1) rotate(0) translate(4 328)">
<title>graphName</title>
<polygon fill="lightsteelblue" stroke="transparent" points="-4,4 -4,-328 634.19,-328 634.19,4 -4,4"/>
<!-- Modem -->
<g id="node1" class="node">
<title>Modem</title>
<ellipse fill="none" stroke="black" cx="460.39" cy="-306" rx="45.49" ry="18"/>
<text text-anchor="middle" x="460.39" y="-302.3" font-family="Times,serif" font-size="14.00">Modem</text>
</g>
<!-- Router -->
<g id="node2" class="node">
<title>Router</title>
<ellipse fill="none" stroke="black" cx="460.39" cy="-234" rx="42.49" ry="18"/>
<text text-anchor="middle" x="460.39" y="-230.3" font-family="Times,serif" font-size="14.00">Router</text>
</g>
<!-- Modem&#45;&gt;Router -->
<g id="edge1" class="edge">
<title>Modem&#45;&gt;Router</title>
<path fill="none" stroke="black" d="M460.39,-287.7C460.39,-279.98 460.39,-270.71 460.39,-262.11"/>
<polygon fill="black" stroke="black" points="463.89,-262.1 460.39,-252.1 456.89,-262.1 463.89,-262.1"/>
</g>
<!-- MainSwitch -->
<g id="node3" class="node">
<title>MainSwitch</title>
<ellipse fill="none" stroke="black" cx="344.39" cy="-162" rx="65.79" ry="18"/>
<text text-anchor="middle" x="344.39" y="-158.3" font-family="Times,serif" font-size="14.00">MainSwitch</text>
</g>
<!-- Router&#45;&gt;MainSwitch -->
<g id="edge2" class="edge">
<title>Router&#45;&gt;MainSwitch</title>
<path fill="none" stroke="black" d="M436.92,-218.83C420.23,-208.76 397.55,-195.08 378.82,-183.77"/>
<polygon fill="black" stroke="black" points="380.63,-180.78 370.26,-178.61 377.01,-186.77 380.63,-180.78"/>
</g>
<!-- WiFi -->
<g id="node4" class="node">
<title>WiFi</title>
<ellipse fill="none" stroke="black" cx="460.39" cy="-162" rx="32.49" ry="18"/>
<text text-anchor="middle" x="460.39" y="-158.3" font-family="Times,serif" font-size="14.00">WiFi</text>
</g>
<!-- Router&#45;&gt;WiFi -->
<g id="edge3" class="edge">
<title>Router&#45;&gt;WiFi</title>
<path fill="none" stroke="black" d="M460.39,-215.7C460.39,-207.98 460.39,-198.71 460.39,-190.11"/>
<polygon fill="black" stroke="black" points="463.89,-190.1 460.39,-180.1 456.89,-190.1 463.89,-190.1"/>
</g>
<!-- GuestWiFi -->
<g id="node5" class="node">
<title>GuestWiFi</title>
<ellipse fill="none" stroke="black" cx="570.39" cy="-162" rx="59.59" ry="18"/>
<text text-anchor="middle" x="570.39" y="-158.3" font-family="Times,serif" font-size="14.00">GuestWiFi</text>
</g>
<!-- Router&#45;&gt;GuestWiFi -->
<g id="edge4" class="edge">
<title>Router&#45;&gt;GuestWiFi</title>
<path fill="none" stroke="black" d="M482.92,-218.67C498.55,-208.72 519.63,-195.3 537.18,-184.14"/>
<polygon fill="black" stroke="black" points="539.43,-186.85 545.99,-178.53 535.67,-180.95 539.43,-186.85"/>
</g>
<!-- ServerSwitch -->
<g id="node7" class="node">
<title>ServerSwitch</title>
<ellipse fill="none" stroke="black" cx="204.39" cy="-90" rx="73.39" ry="18"/>
<text text-anchor="middle" x="204.39" y="-86.3" font-family="Times,serif" font-size="14.00">ServerSwitch</text>
</g>
<!-- MainSwitch&#45;&gt;ServerSwitch -->
<g id="edge6" class="edge">
<title>MainSwitch&#45;&gt;ServerSwitch</title>
<path fill="none" stroke="black" d="M314.36,-145.98C293.97,-135.79 266.78,-122.19 244.54,-111.07"/>
<polygon fill="black" stroke="black" points="245.86,-107.82 235.35,-106.48 242.73,-114.08 245.86,-107.82"/>
</g>
<!-- Desktop -->
<g id="node8" class="node">
<title>Desktop</title>
<ellipse fill="none" stroke="black" cx="344.39" cy="-90" rx="48.99" ry="18"/>
<text text-anchor="middle" x="344.39" y="-86.3" font-family="Times,serif" font-size="14.00">Desktop</text>
</g>
<!-- MainSwitch&#45;&gt;Desktop -->
<g id="edge7" class="edge">
<title>MainSwitch&#45;&gt;Desktop</title>
<path fill="none" stroke="black" d="M344.39,-143.7C344.39,-135.98 344.39,-126.71 344.39,-118.11"/>
<polygon fill="black" stroke="black" points="347.89,-118.1 344.39,-108.1 340.89,-118.1 347.89,-118.1"/>
</g>
<!-- Laptop -->
<g id="node9" class="node">
<title>Laptop</title>
<ellipse fill="none" stroke="black" cx="454.39" cy="-90" rx="42.79" ry="18"/>
<text text-anchor="middle" x="454.39" y="-86.3" font-family="Times,serif" font-size="14.00">Laptop</text>
</g>
<!-- MainSwitch&#45;&gt;Laptop -->
<g id="edge8" class="edge">
<title>MainSwitch&#45;&gt;Laptop</title>
<path fill="none" stroke="black" d="M369.08,-145.29C385.05,-135.13 405.97,-121.82 423.1,-110.91"/>
<polygon fill="black" stroke="black" points="425.11,-113.79 431.66,-105.46 421.35,-107.88 425.11,-113.79"/>
</g>
<!-- Camera -->
<g id="node6" class="node">
<title>Camera</title>
<ellipse fill="none" stroke="black" cx="570.39" cy="-90" rx="46.59" ry="18"/>
<text text-anchor="middle" x="570.39" y="-86.3" font-family="Times,serif" font-size="14.00">Camera</text>
</g>
<!-- GuestWiFi&#45;&gt;Camera -->
<g id="edge5" class="edge">
<title>GuestWiFi&#45;&gt;Camera</title>
<path fill="none" stroke="black" d="M570.39,-143.7C570.39,-135.98 570.39,-126.71 570.39,-118.11"/>
<polygon fill="black" stroke="black" points="573.89,-118.1 570.39,-108.1 566.89,-118.1 573.89,-118.1"/>
</g>
<!-- MailServer -->
<g id="node10" class="node">
<title>MailServer</title>
<ellipse fill="none" stroke="black" cx="62.39" cy="-18" rx="62.29" ry="18"/>
<text text-anchor="middle" x="62.39" y="-14.3" font-family="Times,serif" font-size="14.00">MailServer</text>
</g>
<!-- ServerSwitch&#45;&gt;MailServer -->
<g id="edge9" class="edge">
<title>ServerSwitch&#45;&gt;MailServer</title>
<path fill="none" stroke="black" d="M173.23,-73.64C152.14,-63.24 124.1,-49.42 101.51,-38.28"/>
<polygon fill="black" stroke="black" points="103.03,-35.13 92.51,-33.85 99.93,-41.41 103.03,-35.13"/>
</g>
<!-- WebServer -->
<g id="node11" class="node">
<title>WebServer</title>
<ellipse fill="none" stroke="black" cx="204.39" cy="-18" rx="61.99" ry="18"/>
<text text-anchor="middle" x="204.39" y="-14.3" font-family="Times,serif" font-size="14.00">WebServer</text>
</g>
<!-- ServerSwitch&#45;&gt;WebServer -->
<g id="edge10" class="edge">
<title>ServerSwitch&#45;&gt;WebServer</title>
<path fill="none" stroke="black" d="M204.39,-71.7C204.39,-63.98 204.39,-54.71 204.39,-46.11"/>
<polygon fill="black" stroke="black" points="207.89,-46.1 204.39,-36.1 200.89,-46.1 207.89,-46.1"/>
</g>
<!-- NetworkAccessStorage -->
<g id="node12" class="node">
<title>NetworkAccessStorage</title>
<ellipse fill="none" stroke="black" cx="402.39" cy="-18" rx="118.08" ry="18"/>
<text text-anchor="middle" x="402.39" y="-14.3" font-family="Times,serif" font-size="14.00">NetworkAccessStorage</text>
</g>
<!-- ServerSwitch&#45;&gt;NetworkAccessStorage -->
<g id="edge11" class="edge">
<title>ServerSwitch&#45;&gt;NetworkAccessStorage</title>
<path fill="none" stroke="black" d="M244.46,-74.83C274.39,-64.25 315.62,-49.68 348.44,-38.07"/>
<polygon fill="black" stroke="black" points="349.64,-41.36 357.9,-34.73 347.31,-34.76 349.64,-41.36"/>
</g>
</g>
</svg>
