<?xml version="1.0" encoding="UTF-8" standalone="no"?>
<!DOCTYPE svg PUBLIC "-//W3C//DTD SVG 1.1//EN"
 "http://www.w3.org/Graphics/SVG/1.1/DTD/svg11.dtd">
<!-- Generated by graphviz version 2.43.0 (0)
 -->
<!-- Title: RecieveMailNOIP Pages: 1 -->
<svg width="536pt" height="195pt"
 viewBox="0.00 0.00 536.08 195.20" xmlns="http://www.w3.org/2000/svg" xmlns:xlink="http://www.w3.org/1999/xlink">
<g id="graph0" class="graph" transform="scale(1 1) rotate(0) translate(4 191.2)">
<title>RecieveMailNOIP</title>
<polygon fill="white" stroke="transparent" points="-4,4 -4,-191.2 532.08,-191.2 532.08,4 -4,4"/>
<!-- you_top -->
<g id="node1" class="node">
<title>you_top</title>
<polygon fill="none" stroke="black" points="217.62,-187.2 116.62,-187.2 116.62,-151.2 217.62,-151.2 217.62,-187.2"/>
<text text-anchor="middle" x="167.12" y="-165.5" font-family="Times,serif" font-size="14.00">Your Server</text>
</g>
<!-- noip_top -->
<g id="node2" class="node">
<title>noip_top</title>
<polygon fill="none" stroke="black" points="296.12,-187.2 236.12,-187.2 236.12,-151.2 296.12,-151.2 296.12,-187.2"/>
<text text-anchor="middle" x="266.12" y="-165.5" font-family="Times,serif" font-size="14.00">NO&#45;IP</text>
</g>
<!-- you_top&#45;&gt;noip_top -->
<!-- you_event1 -->
<g id="node7" class="node">
<title>you_event1</title>
<ellipse fill="black" stroke="black" cx="167.12" cy="-113.4" rx="1.8" ry="1.8"/>
</g>
<!-- you_top&#45;&gt;you_event1 -->
<g id="edge5" class="edge">
<title>you_top&#45;&gt;you_event1</title>
<path fill="none" stroke="black" d="M167.12,-151.18C167.12,-137.39 167.12,-119.57 167.12,-115.33"/>
</g>
<!-- email_contact_top -->
<g id="node3" class="node">
<title>email_contact_top</title>
<polygon fill="none" stroke="black" points="437.62,-187.2 314.62,-187.2 314.62,-151.2 437.62,-151.2 437.62,-187.2"/>
<text text-anchor="middle" x="376.12" y="-165.5" font-family="Times,serif" font-size="14.00">E&#45;Mail Contact</text>
</g>
<!-- noip_top&#45;&gt;email_contact_top -->
<!-- noip_event1 -->
<g id="node9" class="node">
<title>noip_event1</title>
<ellipse fill="black" stroke="black" cx="266.12" cy="-113.4" rx="1.8" ry="1.8"/>
</g>
<!-- noip_top&#45;&gt;noip_event1 -->
<g id="edge8" class="edge">
<title>noip_top&#45;&gt;noip_event1</title>
<path fill="none" stroke="black" d="M266.12,-151.18C266.12,-137.39 266.12,-119.57 266.12,-115.33"/>
</g>
<!-- email_contact_event1 -->
<g id="node11" class="node">
<title>email_contact_event1</title>
<ellipse fill="black" stroke="black" cx="376.12" cy="-113.4" rx="1.8" ry="1.8"/>
</g>
<!-- email_contact_top&#45;&gt;email_contact_event1 -->
<g id="edge11" class="edge">
<title>email_contact_top&#45;&gt;email_contact_event1</title>
<path fill="none" stroke="black" d="M376.12,-151.18C376.12,-137.39 376.12,-119.57 376.12,-115.33"/>
</g>
<!-- you_bottom -->
<g id="node4" class="node">
<title>you_bottom</title>
<polygon fill="none" stroke="black" points="217.62,-36 116.62,-36 116.62,0 217.62,0 217.62,-36"/>
<text text-anchor="middle" x="167.12" y="-14.3" font-family="Times,serif" font-size="14.00">Your Server</text>
</g>
<!-- noip_bottom -->
<g id="node5" class="node">
<title>noip_bottom</title>
<polygon fill="none" stroke="black" points="296.12,-36 236.12,-36 236.12,0 296.12,0 296.12,-36"/>
<text text-anchor="middle" x="266.12" y="-14.3" font-family="Times,serif" font-size="14.00">NO&#45;IP</text>
</g>
<!-- you_bottom&#45;&gt;noip_bottom -->
<!-- email_contact_bottom -->
<g id="node6" class="node">
<title>email_contact_bottom</title>
<polygon fill="none" stroke="black" points="437.62,-36 314.62,-36 314.62,0 437.62,0 437.62,-36"/>
<text text-anchor="middle" x="376.12" y="-14.3" font-family="Times,serif" font-size="14.00">E&#45;Mail Contact</text>
</g>
<!-- noip_bottom&#45;&gt;email_contact_bottom -->
<!-- you_event2 -->
<g id="node8" class="node">
<title>you_event2</title>
<ellipse fill="black" stroke="black" cx="167.12" cy="-73.8" rx="1.8" ry="1.8"/>
</g>
<!-- you_event1&#45;&gt;you_event2 -->
<g id="edge6" class="edge">
<title>you_event1&#45;&gt;you_event2</title>
<path fill="none" stroke="black" d="M167.12,-111.47C167.12,-106.4 167.12,-82.13 167.12,-76.14"/>
</g>
<!-- you_event2&#45;&gt;you_bottom -->
<g id="edge7" class="edge">
<title>you_event2&#45;&gt;you_bottom</title>
<path fill="none" stroke="black" d="M167.12,-71.87C167.12,-67.65 167.12,-50.02 167.12,-36.26"/>
</g>
<!-- noip_event2 -->
<g id="node10" class="node">
<title>noip_event2</title>
<ellipse fill="black" stroke="black" cx="266.12" cy="-73.8" rx="1.8" ry="1.8"/>
</g>
<!-- noip_event1&#45;&gt;noip_event2 -->
<g id="edge9" class="edge">
<title>noip_event1&#45;&gt;noip_event2</title>
<path fill="none" stroke="black" d="M266.12,-111.47C266.12,-106.4 266.12,-82.13 266.12,-76.14"/>
</g>
<!-- noip_event2&#45;&gt;noip_bottom -->
<g id="edge10" class="edge">
<title>noip_event2&#45;&gt;noip_bottom</title>
<path fill="none" stroke="black" d="M266.12,-71.87C266.12,-67.65 266.12,-50.02 266.12,-36.26"/>
</g>
<!-- noip_event2&#45;&gt;you_event2 -->
<g id="edge15" class="edge">
<title>noip_event2&#45;&gt;you_event2</title>
<path fill="none" stroke="black" d="M264.22,-73.8C235.84,-73.8 207.47,-73.8 179.09,-73.8"/>
<polygon fill="black" stroke="black" points="179.05,-70.3 169.05,-73.8 179.05,-77.3 179.05,-70.3"/>
<text text-anchor="middle" x="108.5" y="-62.6" font-family="Times,serif" font-size="14.00">Receives E&#45;Mail over port 993</text>
</g>
<!-- email_contact_event1&#45;&gt;noip_event1 -->
<g id="edge14" class="edge">
<title>email_contact_event1&#45;&gt;noip_event1</title>
<path fill="none" stroke="black" d="M374.01,-113.4C342.21,-113.4 310.4,-113.4 278.59,-113.4"/>
<polygon fill="black" stroke="black" points="278.27,-109.9 268.27,-113.4 278.27,-116.9 278.27,-109.9"/>
<text text-anchor="middle" x="424.58" y="-117.2" font-family="Times,serif" font-size="14.00">Receives E&#45;mail over port 25</text>
</g>
<!-- email_contact_event2 -->
<g id="node12" class="node">
<title>email_contact_event2</title>
<ellipse fill="black" stroke="black" cx="376.12" cy="-73.8" rx="1.8" ry="1.8"/>
</g>
<!-- email_contact_event1&#45;&gt;email_contact_event2 -->
<g id="edge12" class="edge">
<title>email_contact_event1&#45;&gt;email_contact_event2</title>
<path fill="none" stroke="black" d="M376.12,-111.47C376.12,-106.4 376.12,-82.13 376.12,-76.14"/>
</g>
<!-- email_contact_event2&#45;&gt;email_contact_bottom -->
<g id="edge13" class="edge">
<title>email_contact_event2&#45;&gt;email_contact_bottom</title>
<path fill="none" stroke="black" d="M376.12,-71.87C376.12,-67.65 376.12,-50.02 376.12,-36.26"/>
</g>
</g>
</svg>
